<?xml version="1.0" encoding="utf-8"?>
<svg version="1.1" id="logo" viewBox="0 0 560 87" xmlns="http://www.w3.org/2000/svg" xmlns:xlink="http://www.w3.org/1999/xlink">
  <g id="bamboo">
    <path id="path1" fill="#0088f5" stroke="none" d="M 120.053719 60.558914 C 116.316063 63.896599 103.420197 74.256287 94.130302 67.474312 C 93.843842 67.265312 93.753906 66.890259 93.918236 66.594856 C 95.085365 64.498596 100.686592 56.900185 119.626968 59.370209 C 120.231461 59.449165 120.490738 60.168724 120.053719 60.558914 Z"/>
    <path id="path2" fill="#3fa9fe" stroke="none" d="M 95.396858 64.88398 C 94.913475 65.470612 94.59893 65.975739 94.410591 66.319412 C 94.262253 66.589996 94.332802 66.929771 94.579582 67.115189 C 100.924316 71.883331 109.418739 66.825546 114.316719 62.986637 C 108.970352 65.555641 101.675636 67.724335 95.396858 64.88398 Z"/>
    <path id="path3" fill="#0369b9" stroke="none" d="M 82.517265 71.410927 C 82.179993 71.281464 81.904686 71.00222 81.794052 70.629044 C 81.605499 69.992157 81.96904 69.322868 82.605843 69.134132 L 108.737137 61.397232 C 109.374489 61.20871 110.043358 61.572083 110.232132 62.209217 C 110.420677 62.846107 110.057144 63.515392 109.420204 63.704079 L 83.289047 71.441032 C 83.025284 71.519081 82.755775 71.50248 82.517265 71.410927 Z"/>
    <path id="path4" fill="#0088f5" stroke="none" d="M 83.643578 27.217728 C 73.676903 26.329819 71.621506 11.546783 71.225494 7.032318 C 71.179207 6.504387 71.773399 6.165894 72.205956 6.471863 C 85.760468 16.064346 84.807167 24.609138 84.302963 26.741375 C 84.231812 27.04174 83.950844 27.245148 83.643578 27.217728 Z"/>
    <path id="path5" fill="#3fa9fe" stroke="none" d="M 72.08075 6.884117 C 71.64064 6.557961 71.185745 6.230568 70.715042 5.901878 C 70.237442 5.568321 69.588562 5.924896 69.644707 6.492599 C 70.087982 10.972763 72.171471 24.868645 81.098343 27.801044 C 73.724236 22.998772 72.306946 9.806206 72.08075 6.884117 Z"/>
    <path id="path6" fill="#0369b9" stroke="none" d="M 89.32431 37.810242 C 89.085808 37.718689 88.874641 37.550926 88.730682 37.316051 L 74.899078 14.751228 C 74.551994 14.184814 74.729614 13.444321 75.295952 13.097046 C 75.862503 12.750015 76.602776 12.927391 76.950272 13.493965 L 90.781738 36.058735 C 91.128822 36.625156 90.951202 37.365646 90.384865 37.712925 C 90.053078 37.916275 89.661446 37.939651 89.32431 37.810242 Z"/>
    <path id="path7" fill="#0088f5" stroke="none" d="M 82.557671 81.465881 L 72.847725 77.738579 C 72.464439 77.591446 72.255608 77.206284 72.381538 76.87822 L 99.84993 5.320618 C 99.975807 4.992699 100.388611 4.845993 100.772064 4.993179 L 110.48201 8.720482 C 110.865295 8.867615 111.074135 9.252785 110.948204 9.580849 L 83.479813 81.138443 C 83.353882 81.466507 82.940956 81.613007 82.557671 81.465881 Z"/>
    <path id="path8" fill="#007de0" stroke="none" d="M 74.848656 78.50666 L 72.7342 77.695 C 72.413597 77.57193 72.253326 77.212219 72.37645 76.891479 L 99.231445 6.931816 C 99.354515 6.611214 99.714226 6.450943 100.034966 6.574066 L 102.149429 7.385727 L 74.848656 78.50666 Z"/>
    <path id="path9" fill="#0088f5" stroke="none" d="M 79.527748 46.375225 L 68.399643 75.364929 C 68.276581 75.685524 67.91687 75.845795 67.59613 75.722679 L 59.474171 72.60495 C 59.153572 72.481888 58.993301 72.122169 59.116421 71.80143 L 66.825584 51.71838 C 66.881142 51.573639 66.988716 51.454918 67.127281 51.385387 L 70.741585 49.57235 L 71.428741 49.227943 L 78.66832 45.596519 C 79.175957 45.341942 79.731277 45.845016 79.527748 46.375225 Z"/>
    <path id="path10" fill="#007de0" stroke="none" d="M 70.74173 49.572403 L 61.588772 73.416672 L 59.474312 72.605003 C 59.153709 72.481934 58.993439 72.122223 59.116558 71.801483 L 66.825722 51.718433 C 66.881279 51.573692 66.988853 51.454971 67.127426 51.385441 L 70.74173 49.572403 Z"/>
    <g id="g1">
      <path id="path11" fill="#0369b9" stroke="none" d="M 98.403473 19.233086 C 97.783249 18.99501 97.473564 18.299187 97.711594 17.6791 L 100.000168 11.717171 C 100.238251 11.096947 100.933792 10.787155 101.554153 11.025284 C 102.174515 11.26342 102.484062 11.95919 102.246033 12.579277 L 99.957512 18.541069 C 99.719429 19.161293 99.023697 19.471169 98.403473 19.233086 Z"/>
      <path id="path12" fill="#0369b9" stroke="none" d="M 91.628937 36.881363 C 91.008713 36.64328 90.699028 35.94746 90.937057 35.327374 L 93.225632 29.365437 C 93.463715 28.745213 94.159248 28.435425 94.779617 28.673561 C 95.399979 28.911697 95.709526 29.60746 95.471497 30.227547 L 93.182922 36.189484 C 92.944893 36.809566 92.249161 37.119446 91.628937 36.881363 Z"/>
      <path id="path13" fill="#0369b9" stroke="none" d="M 84.854347 54.529774 C 84.234123 54.291691 83.924438 53.595867 84.162468 52.975784 L 86.450989 47.013988 C 86.689072 46.393764 87.384605 46.083977 88.004974 46.322109 C 88.625336 46.560246 88.934883 47.256012 88.696854 47.876095 L 86.408333 53.837891 C 86.17025 54.458115 85.474571 54.767853 84.854347 54.529774 Z"/>
      <path id="path14" fill="#0369b9" stroke="none" d="M 78.079758 72.178185 C 77.459534 71.940102 77.149849 71.244286 77.387878 70.624191 L 79.676399 64.662399 C 79.914482 64.042175 80.610016 63.732384 81.230385 63.97052 C 81.850746 64.208656 82.160294 64.904419 81.922264 65.524506 L 79.633743 71.486298 C 79.39566 72.106522 78.699982 72.416267 78.079758 72.178185 Z"/>
      <path id="path15" fill="#0369b9" stroke="none" d="M 63.052456 71.048073 C 62.432232 70.80999 62.122551 70.114174 62.36058 69.494087 L 64.649101 63.532288 C 64.887177 62.912064 65.582726 62.60228 66.203087 62.840412 C 66.823448 63.078545 67.132996 63.774311 66.894966 64.394394 L 64.606445 70.356194 C 64.368279 70.976227 63.672543 71.286102 63.052456 71.048073 Z"/>
      <path id="path16" fill="#0369b9" stroke="none" d="M 72.458572 49.901527 L 70.058395 56.154198 C 69.820419 56.774147 69.124222 57.084 68.50441 56.846081 C 67.88308 56.607574 67.574608 55.9119 67.812531 55.292091 L 69.833321 50.027756 L 71.428741 49.227943 L 72.320419 48.780041 C 72.542267 49.097252 72.607391 49.51384 72.458572 49.901527 Z"/>
    </g>
  </g>
  <path id="path17" fill="#0088f5" stroke="none" d="M 205.600006 76.299995 L 209.100006 67.199997 C 210.899994 68.599998 213.100006 69.699997 215.800003 70.599998 C 218.5 71.5 220.800003 72 222.899994 72 C 226.600006 72 229.600006 70.900002 231.899994 68.799995 C 234.199997 66.699997 235.300003 64 235.300003 60.699997 C 235.300003 58.199997 234.699997 56 233.399994 53.899998 C 232.100006 51.799999 229 49.5 223.899994 47 L 218.300003 44.299999 C 213.5 42 210.199997 39.199997 208.300003 36.099998 C 206.399994 32.899998 205.5 29.099998 205.5 24.599998 C 205.5 19.199997 207.300003 14.699997 211 11.099998 C 214.699997 7.5 219.399994 5.699997 225.199997 5.699997 C 232.899994 5.699997 238.300003 7 241.300003 9.599998 L 238.5 18.199997 C 237.199997 17.199997 235.300003 16.300003 232.699997 15.400002 C 230.100006 14.5 227.699997 14.099998 225.399994 14.099998 C 222.199997 14.099998 219.600006 15.099998 217.699997 17 C 215.800003 18.900002 214.899994 21.400002 214.899994 24.399998 C 214.899994 26.299999 215.199997 27.899998 215.899994 29.5 C 216.600006 31.099998 217.5 32.299999 218.699997 33.299999 C 219.899994 34.299999 222.300003 35.799999 226 37.599998 L 231.699997 40.399998 C 236.5 42.799999 239.800003 45.599998 241.800003 48.799999 C 243.699997 52.099998 244.699997 56.199997 244.699997 61.199997 C 244.699997 66.699997 242.600006 71.299995 238.399994 75.099998 C 234.199997 78.900002 228.5 80.799995 221.5 80.799995 C 215.300003 80.900002 210 79.299995 205.600006 76.299995 Z"/>
  <path id="path18" fill="#0088f5" stroke="none" d="M 255.800003 6.900002 L 265.299988 6.900002 L 265.299988 56.699997 C 265.299988 61.099998 266.700012 64.799995 269.399994 67.699997 C 272.100006 70.599998 275.700012 72 280.100006 72 C 284.799988 72 288.5 70.599998 291.200012 67.799995 C 293.899994 65 295.299988 61.199997 295.299988 56.5 L 295.299988 6.900002 L 304.799988 6.900002 L 304.799988 57.5 C 304.799988 64.900002 302.600006 70.599998 298.200012 74.699997 C 293.799988 78.799995 287.799988 80.900002 280.200012 80.900002 C 272.399994 80.900002 266.299988 78.900002 262.100006 74.799995 C 257.899994 70.799995 255.699997 65 255.699997 57.400002 L 255.800003 6.900002 L 255.800003 6.900002 Z"/>
  <path id="path19" fill="#0088f5" stroke="none" d="M 358 79.599998 L 339.299988 48.399998 C 337.200012 48.399998 333.799988 48.199997 329.200012 47.899998 L 329.200012 79.599998 L 319.700012 79.599998 L 319.700012 6.900002 C 320.100006 6.900002 322.5 6.800003 327.100006 6.5 C 331.700012 6.199997 335 6.099998 337.100006 6.099998 C 353.899994 6.099998 362.299988 13.099998 362.299988 27 C 362.299988 31.599998 360.899994 35.699997 358.200012 39.299999 C 355.5 43 352.299988 45.199997 348.600006 46.099998 L 368.899994 79.599998 L 358 79.599998 L 358 79.599998 Z M 329.200012 15.800003 L 329.200012 39.399998 C 331.5 39.699997 333.700012 39.899998 335.899994 39.899998 C 341.600006 39.899998 345.799988 38.899998 348.399994 37 C 351 35.099998 352.299988 31.699997 352.299988 26.700001 C 352.299988 22.599998 350.899994 19.699997 348.100006 17.900002 C 345.299988 16.099998 340.899994 15.199997 334.799988 15.199997 C 333.899994 15.300003 332 15.5 329.200012 15.800003 Z"/>
  <path id="path20" fill="#0088f5" stroke="none" d="M 428.700012 79.599998 L 420.399994 32.899998 L 405.100006 80.599998 L 402.700012 80.599998 L 387 32.899998 L 378.899994 79.599998 L 369.799988 79.599998 L 383 6.900002 L 387.299988 6.900002 L 404 59.900002 L 419.399994 6.800003 L 423.700012 6.800003 L 437.899994 79.599998 C 437.799988 79.599998 428.700012 79.599998 428.700012 79.599998 Z"/>
  <path id="path21" fill="#0088f5" stroke="none" d="M 442.100006 42.599998 C 442.100006 32.099998 444.600006 23.299999 449.700012 16.199997 C 454.799988 9.099998 461.600006 5.599998 470.299988 5.599998 C 480 5.599998 487.399994 8.900002 492.600006 15.400002 C 497.799988 21.900002 500.399994 31 500.399994 42.699997 C 500.399994 54.699997 497.799988 64 492.600006 70.799995 C 487.399994 77.599998 480 81 470.299988 81 C 461.5 81 454.600006 77.400002 449.600006 70.299995 C 444.600006 63 442.100006 53.799999 442.100006 42.599998 Z M 452.100006 42.599998 C 452.100006 50.899998 453.700012 57.900002 456.899994 63.5 C 460.100006 69.099998 464.5 71.900002 470.299988 71.900002 C 476.799988 71.900002 481.799988 69.299995 485.200012 64.199997 C 488.600006 59.099998 490.299988 51.899998 490.299988 42.599998 C 490.299988 23.899998 483.600006 14.5 470.200012 14.5 C 464.299988 14.5 459.799988 17 456.700012 22 C 453.700012 27.099998 452.100006 33.899998 452.100006 42.599998 Z"/>
  <path id="path22" fill="#0088f5" stroke="none" d="M 556.599976 80.599998 L 520.5 27.399998 L 520.5 79.599998 L 511.399994 79.599998 L 511.399994 6.900002 L 515.200012 6.900002 L 550.400024 57.199997 L 550.400024 6.900002 L 559.5 6.900002 L 559.5 80.699997 C 559.400024 80.599998 556.599976 80.599998 556.599976 80.599998 Z"/>
  <path id="path23" fill="#0088f5" stroke="none" d="M 47.597645 77.32 L 43.651764 81.265877 C 43.19294 81.724701 42.642353 82 42 82 C 41.357647 82 40.715294 81.724701 40.164703 81.265877 L 3.825882 44.835293 C 3.275294 44.284706 3 43.642353 3 43 C 3 42.357647 3.275294 41.715294 3.825882 41.164703 L 40.164703 4.825882 C 40.623528 4.275299 41.265881 4 42 4 C 42.734116 4 43.284706 4.275299 43.651764 4.825882 L 47.597645 8.771767 C 48.148235 9.230591 48.423527 9.87294 48.423527 10.607063 C 48.423527 11.341179 48.148235 11.891762 47.597645 12.25882 L 16.948235 43 L 47.597645 73.649414 C 48.148235 74.199997 48.423527 74.842354 48.423527 75.484711 C 48.423527 76.12706 48.148235 76.769417 47.597645 77.32 Z"/>
  <path id="path24" fill="#0088f5" stroke="none" d="M 171.265854 44.925495 L 134.925507 81.265846 C 134.374878 81.724693 133.732513 82 133.090134 82 C 132.447754 82 131.805359 81.724693 131.254761 81.265846 L 127.308708 77.319801 C 126.849861 76.769188 126.574554 76.126808 126.574554 75.484436 C 126.574554 74.842049 126.849861 74.199669 127.308708 73.649063 L 157.959412 43.090122 L 127.308708 12.347649 C 126.849861 11.888809 126.574554 11.338196 126.574554 10.695816 C 126.574554 10.053436 126.849861 9.411057 127.308708 8.860451 L 131.254761 4.914398 C 131.805359 4.363785 132.447754 4.088478 133.090134 4.088478 C 133.732513 4.088478 134.374878 4.363785 134.925507 4.914398 L 171.265854 41.254749 C 171.724686 41.713593 172 42.355972 172 43.090122 C 172 43.824268 171.724686 44.466652 171.265854 44.925495 Z"/>
</svg>
