<?xml version="1.0" encoding="iso-8859-1"?>
<!-- Uploaded to: SVG Repo, www.svgrepo.com, Generator: SVG Repo Mixer Tools -->
<svg version="1.1" id="Layer_1" xmlns="http://www.w3.org/2000/svg" xmlns:xlink="http://www.w3.org/1999/xlink" 
	 viewBox="0 0 512 512" xml:space="preserve">
<path style="fill:#A9CF54;" d="M464.895,296.271c-13.358,27.371-61.86,115.177-126.535,96.733c-1.994-0.568-3.266-2.521-2.989-4.577
	c1.971-14.592,16.569-70.502,124.722-98.034C463.545,289.515,466.457,293.071,464.895,296.271z"/>
<path style="fill:#92B83D;" d="M338.105,377.034c-1.62,4.845-2.377,8.772-2.731,11.382c-0.279,2.055,0.982,4.017,2.977,4.586
	c51.294,14.636,92.41-37.558,113.896-73.442C424.889,348.556,384.342,379.733,338.105,377.034z"/>
<path style="fill:#627D2A;" d="M273.013,449.008c-2.428,0-4.828-1.089-6.421-3.164c-2.717-3.542-2.048-8.617,1.493-11.335
	l145.325-111.483c3.545-2.718,8.617-2.049,11.336,1.494c2.717,3.542,2.048,8.617-1.494,11.335L277.928,447.338
	C276.461,448.463,274.73,449.008,273.013,449.008z"/>
<path style="fill:#A9CF54;" d="M173.639,169.007C108.965,187.441,60.463,99.636,47.105,72.264c-1.562-3.201,1.351-6.756,4.802-5.878
	c108.151,27.541,122.75,83.451,124.722,98.044C176.906,166.486,175.633,168.439,173.639,169.007z"/>
<path style="fill:#92B83D;" d="M61.855,69.077c-3.224-0.922-6.535-1.818-9.939-2.686c-3.454-0.881-6.374,2.671-4.811,5.874
	c12.336,25.277,54.639,102.082,111.969,99.183C106.506,159.885,69.542,85.705,61.855,69.077z"/>
<path style="fill:#627D2A;" d="M234.795,221.787c-1.717,0-3.446-0.544-4.915-1.671L88.746,111.848
	c-3.542-2.718-4.211-7.792-1.494-11.335c2.719-3.542,7.791-4.212,11.336-1.494l141.133,108.268
	c3.542,2.718,4.211,7.792,1.494,11.335C239.623,220.697,237.222,221.787,234.795,221.787z"/>
<path style="fill:#A9CF54;" d="M285.235,512h-58.47c-2.308,0-4.18-1.871-4.18-4.18V4.18c0-2.308,1.871-4.18,4.18-4.18h58.47
	c2.308,0,4.18,1.871,4.18,4.18V507.82C289.415,510.129,287.543,512,285.235,512z"/>
<path style="fill:#92B83D;" d="M241.987,512h-15.222c-2.308,0-4.18-1.871-4.18-4.18V4.18c0-2.308,1.871-4.18,4.18-4.18h15.222V512z"
	/>
<path style="fill:#A9CF54;" d="M193.956,299.123V507.82c0,2.308-1.871,4.18-4.18,4.18h-58.47c-2.308,0-4.18-1.871-4.18-4.18V363.242
	c0-1.042,0.389-2.046,1.091-2.816l18.311-20.081l3.482-3.816l36.678-40.222C189.26,293.487,193.956,295.306,193.956,299.123z"/>
<path style="fill:#92B83D;" d="M146.529,340.345V512h-15.222c-2.308,0-4.18-1.871-4.18-4.18V363.242
	c0-1.042,0.389-2.046,1.091-2.816L146.529,340.345z"/>
<g>
	<rect x="222.584" y="120.623" style="fill:#627D2A;" width="66.83" height="16.169"/>
	<rect x="222.584" y="247.912" style="fill:#627D2A;" width="66.83" height="16.169"/>
	<rect x="222.584" y="375.202" style="fill:#627D2A;" width="66.83" height="16.169"/>
	<rect x="127.122" y="414.448" style="fill:#627D2A;" width="66.83" height="16.169"/>
	<path style="fill:#627D2A;" d="M247.018,83.358c-4.465,0-8.084-3.62-8.084-8.084v-42.92c0-4.465,3.618-8.084,8.084-8.084
		s8.084,3.62,8.084,8.084v42.919C255.102,79.738,251.483,83.358,247.018,83.358z"/>
	<path style="fill:#627D2A;" d="M247.018,210.408c-4.465,0-8.084-3.62-8.084-8.084v-42.92c0-4.465,3.618-8.084,8.084-8.084
		s8.084,3.62,8.084,8.084v42.92C255.102,206.788,251.483,210.408,247.018,210.408z"/>
	<path style="fill:#627D2A;" d="M247.018,337.459c-4.465,0-8.084-3.62-8.084-8.084v-42.919c0-4.465,3.618-8.084,8.084-8.084
		s8.084,3.62,8.084,8.084v42.919C255.102,333.84,251.483,337.459,247.018,337.459z"/>
	<path style="fill:#627D2A;" d="M247.018,464.51c-4.465,0-8.084-3.62-8.084-8.084v-42.919c0-4.465,3.618-8.084,8.084-8.084
		s8.084,3.62,8.084,8.084v42.919C255.102,460.891,251.483,464.51,247.018,464.51z"/>
	<path style="fill:#627D2A;" d="M150.008,493.613c-4.465,0-8.084-3.62-8.084-8.084v-42.919c0-4.465,3.618-8.084,8.084-8.084
		s8.084,3.62,8.084,8.084v42.919C158.091,489.993,154.472,493.613,150.008,493.613z"/>
	<path style="fill:#627D2A;" d="M158.094,338.275v45.013c0,4.463-3.622,8.084-8.084,8.084c-4.473,0-8.084-3.622-8.084-8.084V345.39
		l8.084-8.861l4.516-4.958C156.682,333.027,158.094,335.484,158.094,338.275z"/>
</g>
</svg>