<?xml version="1.0" encoding="utf-8"?>
<!-- Generator: Adobe Illustrator 20.0.0, SVG Export Plug-In . SVG Version: 6.00 Build 0)  -->
<svg version="1.1" id="图层_1" xmlns="http://www.w3.org/2000/svg" xmlns:xlink="http://www.w3.org/1999/xlink" x="0px" y="0px"
	 viewBox="0 0 560.5 87.9" style="enable-background:new 0 0 560.5 87.9;" xml:space="preserve">
<style type="text/css">
	.st0{fill:#2B65B0;}
</style>
<path class="st0" d="M205.6,77.2l3.5-9.1c1.8,1.4,4,2.5,6.7,3.4s5,1.4,7.1,1.4c3.7,0,6.7-1.1,9-3.2s3.4-4.8,3.4-8.1
	c0-2.5-0.6-4.7-1.9-6.8c-1.3-2.1-4.4-4.4-9.5-6.9l-5.6-2.7c-4.8-2.3-8.1-5.1-10-8.2c-1.9-3.2-2.8-7-2.8-11.5c0-5.4,1.8-9.9,5.5-13.5
	s8.4-5.4,14.2-5.4c7.7,0,13.1,1.3,16.1,3.9l-2.8,8.6c-1.3-1-3.2-1.9-5.8-2.8s-5-1.3-7.3-1.3c-3.2,0-5.8,1-7.7,2.9
	c-1.9,1.9-2.8,4.4-2.8,7.4c0,1.9,0.3,3.5,1,5.1c0.7,1.6,1.6,2.8,2.8,3.8s3.6,2.5,7.3,4.3l5.7,2.8c4.8,2.4,8.1,5.2,10.1,8.4
	c1.9,3.3,2.9,7.4,2.9,12.4c0,5.5-2.1,10.1-6.3,13.9s-9.9,5.7-16.9,5.7C215.3,81.8,210,80.2,205.6,77.2z"/>
<path class="st0" d="M255.8,7.8h9.5v49.8c0,4.4,1.4,8.1,4.1,11s6.3,4.3,10.7,4.3c4.7,0,8.4-1.4,11.1-4.2c2.7-2.8,4.1-6.6,4.1-11.3
	V7.8h9.5v50.6c0,7.4-2.2,13.1-6.6,17.2s-10.4,6.2-18,6.2c-7.8,0-13.9-2-18.1-6.1c-4.2-4-6.4-9.8-6.4-17.4L255.8,7.8L255.8,7.8z"/>
<path class="st0" d="M358,80.5l-18.7-31.2c-2.1,0-5.5-0.2-10.1-0.5v31.7h-9.5V7.8c0.4,0,2.8-0.1,7.4-0.4c4.6-0.3,7.9-0.4,10-0.4
	c16.8,0,25.2,7,25.2,20.9c0,4.6-1.4,8.7-4.1,12.3c-2.7,3.7-5.9,5.9-9.6,6.8l20.3,33.5H358L358,80.5z M329.2,16.7v23.6
	c2.3,0.3,4.5,0.5,6.7,0.5c5.7,0,9.9-1,12.5-2.9s3.9-5.3,3.9-10.3c0-4.1-1.4-7-4.2-8.8c-2.8-1.8-7.2-2.7-13.3-2.7
	C333.9,16.2,332,16.4,329.2,16.7z"/>
<path class="st0" d="M428.7,80.5l-8.3-46.7l-15.3,47.7h-2.4L387,33.8l-8.1,46.7h-9.1L383,7.8h4.3l16.7,53l15.4-53.1h4.3l14.2,72.8
	C437.8,80.5,428.7,80.5,428.7,80.5z"/>
<path class="st0" d="M442.1,43.5c0-10.5,2.5-19.3,7.6-26.4s11.9-10.6,20.6-10.6c9.7,0,17.1,3.3,22.3,9.8c5.2,6.5,7.8,15.6,7.8,27.3
	c0,12-2.6,21.3-7.8,28.1c-5.2,6.8-12.6,10.2-22.3,10.2c-8.8,0-15.7-3.6-20.7-10.7C444.6,63.9,442.1,54.7,442.1,43.5z M452.1,43.5
	c0,8.3,1.6,15.3,4.8,20.9c3.2,5.6,7.6,8.4,13.4,8.4c6.5,0,11.5-2.6,14.9-7.7s5.1-12.3,5.1-21.6c0-18.7-6.7-28.1-20.1-28.1
	c-5.9,0-10.4,2.5-13.5,7.5C453.7,28,452.1,34.8,452.1,43.5z"/>
<path class="st0" d="M556.6,81.5l-36.1-53.2v52.2h-9.1V7.8h3.8l35.2,50.3V7.8h9.1v73.8C559.4,81.5,556.6,81.5,556.6,81.5z"/>
<path class="st0" d="M48.6,81.4l-4.3,4.3c-0.5,0.5-1.1,0.8-1.8,0.8s-1.4-0.3-2-0.8L0.9,46C0.3,45.4,0,44.7,0,44s0.3-1.4,0.9-2
	L40.5,2.4c0.5-0.6,1.2-0.9,2-0.9s1.4,0.3,1.8,0.9l4.3,4.3c0.6,0.5,0.9,1.2,0.9,2s-0.3,1.4-0.9,1.8L15.2,44l33.4,33.4
	c0.6,0.6,0.9,1.3,0.9,2C49.5,80.1,49.2,80.8,48.6,81.4z"/>
<path class="st0" d="M113.7,3.7L78,86.4c-0.2,0.5-0.7,1-1.5,1.3S75,88,74.3,87.8l-5.8-1c-0.9-0.2-1.5-0.6-1.9-1
	c-0.3-0.5-0.5-1-0.3-1.6L102,1.7c0.3-0.6,0.9-1,1.5-1.3c0.7-0.2,1.4-0.3,2.2-0.2l6,1.1c0.8,0.2,1.4,0.5,1.9,1
	C114,2.7,114.1,3.2,113.7,3.7z"/>
<path class="st0" d="M173.4,46l-39.6,39.6c-0.6,0.5-1.3,0.8-2,0.8s-1.4-0.3-2-0.8l-4.3-4.3c-0.5-0.6-0.8-1.3-0.8-2s0.3-1.4,0.8-2
	L158.9,44l-33.4-33.5c-0.5-0.5-0.8-1.1-0.8-1.8s0.3-1.4,0.8-2l4.3-4.3c0.6-0.6,1.3-0.9,2-0.9s1.4,0.3,2,0.9L173.4,42
	c0.5,0.5,0.8,1.2,0.8,2S173.9,45.5,173.4,46z"/>
</svg>
