<?xml version="1.0" standalone="no"?>
<!DOCTYPE svg PUBLIC "-//W3C//DTD SVG 1.1//EN" "http://www.w3.org/Graphics/SVG/1.1/DTD/svg11.dtd" >

<svg>
<metadata>
Created by webfont
</metadata>
<defs>

<font id="AlibabaPuHuiTiM" horiz-adv-x="1306" vert-adv-y="1306" >
  <font-face
    
    font-family="AlibabaPuHuiTiM"
    
    font-weight="400"
    
    font-stretch="normal"
    
    units-per-em="1000"
    
    ascent="1128"
    
    descent="-310"
    
  />
    <missing-glyph />
    
    <glyph glyph-name="uni3001" unicode="&#x3001;" d="M377-47L281-111Q251-60 204-2Q157 56 120 85L199 139Q294 75 377-47Z"  horiz-adv-x="984" vert-adv-y="1000"  />

    
    <glyph glyph-name="uni3002" unicode="&#x3002;" d="M353-78Q353-78 334-94.50Q315-111 258-111Q201-111 163-78Q125-45 125 15Q125 75 163 108Q201 141 258 141Q315 141 353 108Q391 75 391 15Q391-45 353-78M213.50-29Q213.50-29 222.25-37Q231-45 258-45Q285-45 302.50-29Q320-13 320 15Q320 43 302.50 59Q285 75 258 75Q231 75 213.50 59Q196 43 196 15Q196-13 213.50-29Z"  horiz-adv-x="984" vert-adv-y="1000"  />

    
    <glyph glyph-name="uni4E00" unicode="&#x4E00;" d="M934 328L50 328L50 440L934 440L934 328Z"  horiz-adv-x="984" vert-adv-y="1000"  />

    
    <glyph glyph-name="uni4E07" unicode="&#x4E07;" d="M925 653L417 653Q416 635 413.50 583Q411 531 409 508L409 505L816 505Q814 482 802.50 307Q791 132 789 108Q779 4 743-29.50Q707-63 605-69L509-74L475 31L572 35Q638 37 657.50 55.50Q677 74 683 142Q684 151 689 215.50Q694 280 698 334Q702 388 702 406L401 406Q382 237 323.50 122Q265 7 130-107L44-26Q191 96 241.50 202.50Q292 309 304 509Q306 527 308 579.50Q310 632 311 653L67 653L67 756L925 756L925 653Z"  horiz-adv-x="984" vert-adv-y="1000"  />

    
    <glyph glyph-name="uni4E0A" unicode="&#x4E0A;" d="M520 38L934 38L934-60L54-60L54 38L418 38L418 806L520 802L520 531L873 531L873 433L520 433L520 38Z"  horiz-adv-x="984" vert-adv-y="1000"  />

    
    <glyph glyph-name="uni4E0D" unicode="&#x4E0D;" d="M889 644L597 644Q557 567 497 484L541 482L541-93L438-93L438 407Q308 249 119 97L51 189Q338 394 481 644L99 644L99 746L889 746L889 644M549 408L609 486Q773 352 924 206L862 111Q704 275 549 408Z"  horiz-adv-x="984" vert-adv-y="1000"  />

    
    <glyph glyph-name="uni4E2D" unicode="&#x4E2D;" d="M875 627L875 184L546 184L546-100L443-100L443 184L108 184L108 627L443 627L443 807L546 803L546 627L875 627M213 282L443 282L443 526L213 526L213 282M771 282L771 526L546 526L546 282L771 282Z"  horiz-adv-x="984" vert-adv-y="1000"  />

    
    <glyph glyph-name="uni4E34" unicode="&#x4E34;" d="M937 697L937 597L673 597Q737 533 783 470L725 404L885 404L885-86L792-86L792-35L519-35L519-86L425-86L425 404L712 404Q641 496 586 551L637 597L551 597Q495 487 439 404L357 468L357-95L258-95L258 800L357 796L357 476Q412 551 459 645Q506 739 530 824L630 794Q615 749 595 697L937 697M99 2L99 714L193 710L193 2L99 2M519 313L519 56L609 56L609 313L519 313M792 56L792 313L696 313L696 56L792 56Z"  horiz-adv-x="984" vert-adv-y="1000"  />

    
    <glyph glyph-name="uni4E39" unicode="&#x4E39;" d="M932 368L932 272L790 272L790 46Q790-31 759.50-57.50Q729-84 642-93L574-100L543-2L618 5Q664 9 677.50 21Q691 33 691 75L691 272L308 272Q304 148 277 69.50Q250-9 172-115L82-57Q156 39 181.50 103Q207 167 211 272L53 272L53 368L212 368L212 768L790 768L790 368L932 368M309 368L691 368L691 672L311 672L309 368M388 574L458 642Q524 580 609 471L543 393Q469 493 388 574Z"  horiz-adv-x="984" vert-adv-y="1000"  />

    
    <glyph glyph-name="uni4E3A" unicode="&#x4E3A;" d="M516 591L876 591Q849 116 847 56Q843-19 806-45.50Q769-72 668-81L575-89L541 16L635 24Q705 30 723 42.50Q741 55 747 105Q752 151 759.50 316Q767 481 768 489L505 489Q478 296 392.50 162.50Q307 29 130-107L52-24Q216 97 294 210.50Q372 324 399 489L96 489L96 591L288 591Q196 705 155 743L226 807Q288 750 357 664L294 591L411 591Q413 615 418 697.50Q423 780 426 802L530 798Q530 775 523.50 692Q517 609 516 591M701 247L631 168Q612 196 559.50 257Q507 318 480 345L551 413Q637 327 701 247Z"  horiz-adv-x="984" vert-adv-y="1000"  />

    
    <glyph glyph-name="uni4E3B" unicode="&#x4E3B;" d="M546 29L930 29L930-66L54-66L54 29L444 29L444 257L138 257L138 356L444 356L444 544L96 544L96 645L456 645Q424 762 414 793L516 808L565 645L888 645L888 544L546 544L546 356L846 356L846 257L546 257L546 29Z"  horiz-adv-x="984" vert-adv-y="1000"  />

    
    <glyph glyph-name="uni4E4B" unicode="&#x4E4B;" d="M531 40Q734 32 938 40L919-59Q728-67 537-59Q415-55 358-38Q301-21 255 30Q228 61 217 61Q209 61 181 32Q149-2 104-65L33 24Q45 41 64.50 65Q84 89 109 118.50Q134 148 142 157Q163 180 177 188Q191 196 211 196Q225 196 237 191Q366 264 499 361.50Q632 459 720 538L140 538L140 639L462 639Q429 760 422 779L524 794Q530 777 546.50 720.50Q563 664 571 639L861 639L861 536Q773 440 617 319Q461 198 313 113Q351 70 394.50 56Q438 42 531 40Z"  horiz-adv-x="984" vert-adv-y="1000"  />

    
    <glyph glyph-name="uni4E91" unicode="&#x4E91;" d="M836 759L836 661L148 661L148 759L836 759M921 391L503 391Q455 306 388.50 209.50Q322 113 282 73L686 95Q601 212 554 265L638 326Q770 172 897-8L818-90L756-1Q737-2 621.50-7Q506-12 395-18Q284-24 207-31Q191-33 133-41L103 61Q116 66 126.50 71.50Q137 77 141.50 80Q146 83 153.50 90Q161 97 164 99Q213 145 272.50 227.50Q332 310 378 391L63 391L63 490L921 490L921 391Z"  horiz-adv-x="984" vert-adv-y="1000"  />

    
    <glyph glyph-name="uni4EA6" unicode="&#x4EA6;" d="M929 129L838 72Q776 223 660 433L660 25Q660-44 633.50-71Q607-98 530-104L460-110L429-6L501 0Q537 2 548 13Q559 24 559 59L559 575L443 575Q443 463 439 387Q433 249 410 162Q387 75 341 11Q295-53 206-128L124-51Q250 47 290 131Q330 215 338 396Q343 486 343 575L74 575L74 669L450 669Q427 759 417 790L522 802Q542 734 558 669L907 669L907 575L660 575L660 438L743 482Q829 341 929 129M194 484L286 458Q237 285 124 88L38 136Q148 319 194 484Z"  horiz-adv-x="984" vert-adv-y="1000"  />

    
    <glyph glyph-name="uni4EB2" unicode="&#x4EB2;" d="M717 479L926 479L926 387L555 387L555 289L887 289L887 199L555 199L555 25Q555-42 530.50-64Q506-86 432-92L375-97L342 6L397 10Q435 14 444 23.50Q453 33 453 64L453 199L98 199L98 289L453 289L453 387L56 387L56 479L283 479Q269 570 260 620L117 620L117 713L454 713L428 793L530 808Q549 750 562 713L866 713L866 620L748 620Q743 592 717 479M645 620L363 620L389 479L614 479Q636 568 645 620M290 195L356 125Q269 31 114-82L53 1Q179 80 290 195M615 108L669 189Q716 161 788.50 109Q861 57 909 18L858-72Q778 2 615 108Z"  horiz-adv-x="984" vert-adv-y="1000"  />

    
    <glyph glyph-name="uni4EBA" unicode="&#x4EBA;" d="M534 576Q592 225 927-16L854-111Q716 5 627 123.50Q538 242 491 376Q402 110 128-101L52-11Q260 139 348.50 301.50Q437 464 439 703Q440 726 440 794L541 790Q541 772 540.50 724Q540 676 540 663Q538 620 534 576Z"  horiz-adv-x="984" vert-adv-y="1000"  />

    
    <glyph glyph-name="uni4EE5" unicode="&#x4EE5;" d="M560 544L479 480Q426 588 327 750L406 802Q471 706 560 544M948 2L875-85Q802 14 698 123Q612 3 404-112L341-19Q427 26 487 71.50Q547 117 587 163Q627 209 652 268.50Q677 328 689.50 389Q702 450 710 537Q715 596 715 778L814 774Q814 593 810 529Q796 328 751 221Q900 59 948 2M457 345L518 256Q466 217 346.50 119Q227 21 151-50L81 34Q103 48 108 61.50Q113 75 113 100L113 755L214 751L214 147L457 345Z"  horiz-adv-x="984" vert-adv-y="1000"  />

    
    <glyph glyph-name="uni4F53" unicode="&#x4F53;" d="M909 547L678 547Q765 339 972 152L904 59Q731 227 637 438L637 154L792 154L792 62L637 62L637-101L539-101L539 62L392 62L392 154L539 154L539 433Q455 232 290 59L255 106L255-94L159-94L159 385Q119 322 80 271L18 360Q76 444 135 564.50Q194 685 228 801L332 783Q300 674 255 569L255 176Q417 335 503 547L300 547L300 648L539 648L539 805L637 801L637 648L909 648L909 547Z"  horiz-adv-x="984" vert-adv-y="1000"  />

    
    <glyph glyph-name="uni4F55" unicode="&#x4F55;" d="M230 805L326 779Q299 681 255 578L255-98L158-98L158 394Q124 340 75 274L12 354Q70 434 135 564.50Q200 695 230 805M940 745L940 650L855 650L855 48Q855-33 826.50-60.50Q798-88 707-96L633-102L602-2L682 4Q725 6 741 19.50Q757 33 757 76L757 650L329 650L329 745L940 745M663 536L663 125L348 125L348 536L663 536M574 213L574 445L436 445L436 213L574 213Z"  horiz-adv-x="984" vert-adv-y="1000"  />

    
    <glyph glyph-name="uni4F59" unicode="&#x4F59;" d="M896 231L553 231L553 30Q553-41 525.50-64.50Q498-88 417-97L348-104L314 1L377 7Q427 13 438.50 21.50Q450 30 450 66L450 231L88 231L88 329L450 329L450 428L257 428L257 494Q183 443 90 396L43 495Q184 561 278.50 635Q373 709 446 810L539 810Q611 710 707.50 634.50Q804 559 946 493L896 395Q816 436 734 492L734 428L553 428L553 329L896 329L896 231M493 718Q423 613 300 524L689 524Q555 626 493 718M267 214L345 148Q278 63 110-86L45-4Q105 40 167 99.50Q229 159 267 214M632 136L693 212Q744 180 813.50 122.50Q883 65 929 19L875-74Q829-23 756.50 38Q684 99 632 136Z"  horiz-adv-x="984" vert-adv-y="1000"  />

    
    <glyph glyph-name="uni4F86" unicode="&#x4F86;" d="M543 603L543 346Q674 170 942 51L894-45Q654 79 543 195L543-91L446-91L446 197Q327 66 95-54L49 37Q304 151 446 346L446 603L106 603L106 694L446 694L446 809L543 806L543 694L882 694L882 603L543 603M690 581L773 554Q761 513 742 470Q790 422 895 320L835 253L699 390Q669 344 617 289L550 354Q643 448 690 581M249 572L336 551Q320 496 310 475Q330 455 370 412Q410 369 425 354L361 289Q311 351 272 393Q229 315 157 243L93 306Q206 424 249 572Z"  horiz-adv-x="984" vert-adv-y="1000"  />

    
    <glyph glyph-name="uni5047" unicode="&#x5047;" d="M208 800L304 783Q274 675 239 588L239-100L147-100L147 402Q125 364 80 296L16 373Q74 459 126.50 573.50Q179 688 208 800M585 95L399 95L399-94L310-94L310 768L583 768L583 470L399 470L399 375L569 375L569 286L399 286L399 185L585 185L585 95M879 767L879 472L617 472L617 565L791 565L791 676L618 676L618 767L879 767M496 676L399 676L399 560L496 560L496 676M955-6L905-103Q790-40 725 25Q649-45 532-107L478-22Q591 34 665 97Q617 168 587 276L670 302Q689 216 727 160Q779 225 803 307L587 307L587 395L892 395L892 305Q858 185 787 93Q845 44 955-6Z"  horiz-adv-x="984" vert-adv-y="1000"  />

    
    <glyph glyph-name="uni5149" unicode="&#x5149;" d="M839 170L937 143Q936 134 933.50 101.50Q931 69 928 47Q916-31 887-55.50Q858-80 777-84Q719-87 662-84Q588-80 560.50-53Q533-26 533 50L533 340L404 340Q404 336 403.50 331.50Q403 327 403 325Q393 159 331 66Q269-27 109-113L29-23Q181 49 236 118.50Q291 188 295 327Q295 337 296 340L67 340L67 439L435 439L435 802L538 798L538 439L914 439L914 340L636 340L636 82Q636 50 649 39.50Q662 29 699 26Q731 23 764 26Q805 30 815.50 39Q826 48 832 81Q838 125 839 170M780 750L862 688Q778 556 688 459L608 525Q703 629 780 750M364 534L288 462Q261 508 209 576.50Q157 645 119 685L197 747Q234 708 286 642Q338 576 364 534Z"  horiz-adv-x="984" vert-adv-y="1000"  />

    
    <glyph glyph-name="uni5185" unicode="&#x5185;" d="M543 664L870 664L870 34Q870-42 843.50-65.50Q817-89 733-95L658-101L627 1L702 7Q744 11 757 21.50Q770 32 770 66L770 566L543 566Q541 503 530 453Q666 327 770 208L707 117Q644 192 494 348Q435 227 274 103L218 178L218-91L116-91L116 664L443 664L443 802L543 798L543 664M218 566L218 198Q345 295 392 374Q439 453 443 566L218 566Z"  horiz-adv-x="984" vert-adv-y="1000"  />

    
    <glyph glyph-name="uni51CB" unicode="&#x51CB;" d="M260 515L174 467Q158 521 123.50 606.50Q89 692 66 735L151 771Q211 659 260 515M301 762L886 762L886 25Q886-43 860.50-65Q835-87 752-95L704-100L676-8L734-4Q774-2 784 6Q794 14 794 45L794 669L392 669L392 388Q392 196 372 93Q352-10 295-109L202-61Q264 51 282.50 139.50Q301 228 301 426L301 762M408 422L543 422L543 501L430 501L430 584L543 584L543 656L628 652L628 584L747 584L747 501L628 501L628 422L774 422L774 342L408 342L408 422M156 373L254 350Q198 154 131-37L30-13Q105 178 156 373M724 283L724 20L443 20L443 283L724 283M646 98L646 204L524 204L524 98L646 98Z"  horiz-adv-x="984" vert-adv-y="1000"  />

    
    <glyph glyph-name="uni51E1" unicode="&#x51E1;" d="M839 192L934 161Q934 131 922 28Q914-34 891-55.50Q868-77 806-79Q766-80 726-79Q663-77 636-50.50Q609-24 609 43L609 649L312 649L312 457L381 525Q513 393 601 285L534 198Q443 320 312 451L312 401Q312 204 275.50 104.50Q239 5 122-106L38-39Q145 60 176 141Q207 222 207 401L207 754L716 754L716 77Q716 42 724.50 32.50Q733 23 762 23L780 23Q806 23 815.50 32.50Q825 42 829 70Q837 122 839 192Z"  horiz-adv-x="984" vert-adv-y="1000"  />

    
    <glyph glyph-name="uni52A8" unicode="&#x52A8;" d="M666 628L901 628Q901 480 881 50Q879-21 850-43.50Q821-66 735-75L673-81L639 16L697 22Q755 28 771 40.50Q787 53 789 99Q791 129 796.50 314Q802 499 804 530L662 530Q657 426 654 374Q651 322 643 253.50Q635 185 624.50 147Q614 109 595 59Q576 9 550-32Q524-73 485-123L396-62Q430-22 463 27L421-1L412 24Q183 7 95-10L58 93Q71 99 79 106.50Q87 114 89.50 119Q92 124 100 140Q117 172 145.50 246Q174 320 195 390L54 390L54 490L490 490L490 390L300 390Q235 173 196 112L375 124Q340 219 307 294L396 328Q437 239 494 82Q532 156 546.50 252Q561 348 567 530L456 530L456 628L570 628Q572 669 575 806L668 802Q668 766 666 628M459 739L459 642L105 642L105 739L459 739Z"  horiz-adv-x="984" vert-adv-y="1000"  />

    
    <glyph glyph-name="uni52C7" unicode="&#x52C7;" d="M229 283L229 230L133 230L133 591L389 591Q302 635 248 655L277 694L138 694L138 773L852 773L852 692Q805 680 597 591L851 591L851 232L753 232L753 283L534 283L534 246L441 246L441 283L229 283M658 694L347 694Q407 668 487 629Q590 675 658 694M441 515L229 515L229 469L441 469L441 515M753 469L753 515L534 515L534 469L753 469M229 351L441 351L441 397L229 397L229 351M534 351L753 351L753 397L534 397L534 351M471 191L853 191L836 25Q830-36 798.50-57.50Q767-79 678-85L571-92L542-7L647-1Q703 3 719.50 13.50Q736 24 740 55Q742 64 744 82Q746 100 747 109L453 109Q400-55 97-123L56-33Q191-2 254 30.50Q317 63 342 109L99 109L99 191L368 191Q369 197 371 215Q373 233 375 239L476 234Q474 206 471 191Z"  horiz-adv-x="984" vert-adv-y="1000"  />

    
    <glyph glyph-name="uni5411" unicode="&#x5411;" d="M485 690L871 690L871 26Q871-38 845.50-59Q820-80 738-88L662-95L632 7L711 13Q749 16 759.50 25.50Q770 35 770 64L770 593L200 593L200-81L99-81L99 690L361 690Q384 742 409 817L528 797Q524 786 517.50 769Q511 752 501 728Q491 704 485 690M674 482L674 87L297 87L297 482L674 482M576 182L576 385L395 385L395 182L576 182Z"  horiz-adv-x="984" vert-adv-y="1000"  />

    
    <glyph glyph-name="uni543E" unicode="&#x543E;" d="M774 399L932 399L932 311L49 311L49 399L260 399L283 506L130 506L130 594L303 594L320 672L101 672L101 761L877 761L877 672L421 672L404 594L780 594L774 399M384 506L361 399L669 399L675 506L384 506M170-102L170 245L818 245L818-102L712-102L712-61L272-61L272-102L170-102M712 156L272 156L272 26L712 26L712 156Z"  horiz-adv-x="984" vert-adv-y="1000"  />

    
    <glyph glyph-name="uni5468" unicode="&#x5468;" d="M144 770L875 770L875 36Q875-37 846.50-62Q818-87 737-96L679-102L649-14L708-8Q754-4 767 6.50Q780 17 780 52L780 680L240 680L240 390Q240 204 216.50 107.50Q193 11 127-108L34-58Q100 54 122 144Q144 234 144 428L144 770M260 427L454 427L454 508L293 508L293 590L454 590L454 664L544 660L544 590L713 590L713 508L544 508L544 427L747 427L747 346L260 346L260 427M692 281L692 8L317 8L317 281L692 281M603 93L603 196L405 196L405 93L603 93Z"  horiz-adv-x="984" vert-adv-y="1000"  />

    
    <glyph glyph-name="uni54C1" unicode="&#x54C1;" d="M786 780L786 437L192 437L192 780L786 780M687 531L687 686L293 686L293 531L687 531M92-78L92 351L451 351L451-78L358-78L358-24L185-24L185-78L92-78M518 351L883 351L883-78L790-78L790-24L611-24L611-78L518-78L518 351M358 260L185 260L185 67L358 67L358 260M611 67L790 67L790 259L611 259L611 67Z"  horiz-adv-x="984" vert-adv-y="1000"  />

    
    <glyph glyph-name="uni5584" unicode="&#x5584;" d="M746 288L925 288L925 210L56 210L56 288L233 288Q215 312 189 342L221 369L78 369L78 448L438 448L439 499L133 499L133 577L439 577L439 628L99 628L99 707L306 707Q283 738 254 769L328 829Q356 800 401 739L370 707L565 707Q611 759 655 826L734 772Q728 765 712 742.50Q696 720 685 707L883 707L883 628L536 628L536 577L850 577L850 499L536 499L536 448L904 448L904 369L758 369L790 345Q769 317 746 288M438 369L281 369L325 312L302 288L438 288L438 369M702 369L536 369L536 288L639 288Q680 337 702 369M160-98L160 159L822 159L822-98L726-98L726-69L256-69L256-98L160-98M726 84L256 84L256 9L726 9L726 84Z"  horiz-adv-x="984" vert-adv-y="1000"  />

    
    <glyph glyph-name="uni559C" unicode="&#x559C;" d="M441 609L441 655L70 655L70 732L441 732L441 805L539 801L539 732L913 732L913 655L539 655L539 609L866 609L866 537L117 537L117 609L441 609M677 248L941 248L941 174L41 174L41 248L293 248L276 313L172 313L172 498L812 498L812 313L701 313L677 248M265 433L265 382L717 382L717 433L265 433M607 313L369 313L387 248L583 248Q594 275 607 313M164-103L164 132L819 132L819-103L723-103L723-70L260-70L260-103L164-103M723 63L260 63L260-2L723-2L723 63Z"  horiz-adv-x="984" vert-adv-y="1000"  />

    
    <glyph glyph-name="uni56DB" unicode="&#x56DB;" d="M104 734L878 734L878-92L779-92L779-28L202-28L202-92L104-92L104 734M202 68L779 68L779 215L678 215Q606 215 573.50 243.50Q541 272 541 344L541 636L436 636L436 517Q436 426 420 367Q404 308 371.50 265Q339 222 273 163L203 232Q289 301 313 354.50Q337 408 337 520L337 636L202 636L202 68M779 316L779 636L637 636L637 383Q637 342 651 329Q665 316 707 316L779 316Z"  horiz-adv-x="984" vert-adv-y="1000"  />

    
    <glyph glyph-name="uni5802" unicode="&#x5802;" d="M191 547L191 419L96 419L96 639L267 639Q216 700 171 741L239 806Q283 762 353 682L317 639L446 639L446 805L543 801L543 639L667 639L627 673Q698 744 743 804L815 748Q778 700 722 639L892 639L892 419L797 419L797 547L191 547M539-3L914-3L914-87L71-87L71-3L442-3L442 83L158 83L158 169L442 169L442 242L203 242L203 479L784 479L784 242L539 242L539 169L828 169L828 83L539 83L539-3M298 398L298 323L685 323L685 398L298 398Z"  horiz-adv-x="984" vert-adv-y="1000"  />

    
    <glyph glyph-name="uni58D1" unicode="&#x58D1;" d="M162 614L162 531L80 531L80 670L269 670L269 810L356 806L356 757L526 757L526 700L356 700L356 670L571 670L571 530L486 530L486 614L162 614M730 436Q785 528 811 662L575 662L575 744L893 744L893 659Q858 481 780 364Q834 301 936 236L885 159Q788 230 730 298Q664 224 575 162L523 235Q620 298 679 366Q614 470 586 631L664 648Q683 516 730 436M210 574L441 574L441 517L210 517L210 574M202 529L239 473Q169 422 84 376L54 442Q121 470 202 529M602 439L572 377Q539 401 421 472L451 529Q542 479 602 439M155 186L155 289Q107 262 64 241L40 305Q244 410 318 511L375 466L366 455Q489 386 576 322L542 261Q521 278 497 294L497 186L155 186M321 407Q294 381 257 354L408 354Q396 362 381.50 371Q367 380 349.50 390Q332 400 321 407M418 242L418 297L235 297L235 242L418 242M541 49L541-7L923-7L923-84L59-84L59-7L446-7L446 49L142 49L142 122L446 122L446 171L541 167L541 122L836 122L836 49L541 49Z"  horiz-adv-x="984" vert-adv-y="1000"  />

    
    <glyph glyph-name="uni590D" unicode="&#x590D;" d="M922-11L902-108Q676-73 522-16Q356-73 98-116L71-29Q241-7 398 36Q306 85 257 120Q181 57 98 12L51 93Q201 175 288 281L173 281L173 535Q137 495 97 456L33 537Q99 594 161.50 673.50Q224 753 253 817L344 775Q344 774 322 734L903 734L903 651L268 651Q257 636 227 597L821 597L821 281L340 281L392 258Q388 252 368 230L843 230L843 151Q753 85 644 32Q768 2 922-11M720 525L272 525L272 470L720 470L720 525M272 405L272 351L720 351L720 405L272 405M697 158L333 158Q405 110 510 72Q635 120 697 158Z"  horiz-adv-x="984" vert-adv-y="1000"  />

    
    <glyph glyph-name="uni5982" unicode="&#x5982;" d="M472 636L472 538Q457 399 434 306.50Q411 214 370 142Q474 59 511 26L448-66Q376 1 309 57Q245-20 114-119L39-44Q169 45 235 119Q153 186 96 227Q139 386 163 536L68 536L68 636L177 636Q188 723 195 810L295 800Q287 712 277 636L472 636M524 699L883 699L883-76L790-76L790-7L619-7L619-81L524-81L524 699M619 92L790 92L790 601L619 601L619 92M207 267Q271 220 295 201Q329 260 347 338Q365 416 375 536L263 536Q233 358 207 267Z"  horiz-adv-x="984" vert-adv-y="1000"  />

    
    <glyph glyph-name="uni5B57" unicode="&#x5B57;" d="M194 602L194 472L93 472L93 698L444 698Q427 764 416 796L527 813Q533 794 543.50 758Q554 722 561 698L890 698L890 471L788 471L788 602L194 602M927 271L927 175L547 175L547 39Q547-40 524-64Q501-88 423-94L341-100L310-2L388 4Q424 7 435 19Q446 31 446 67L446 175L55 175L55 271L446 271L446 323L602 420L217 420L217 514L775 514L775 417L547 279L547 271L927 271Z"  horiz-adv-x="984" vert-adv-y="1000"  />

    
    <glyph glyph-name="uni5B81" unicode="&#x5B81;" d="M209 599L209 485L106 485L106 698L444 698Q433 742 419 783L528 801Q557 710 560 698L876 698L876 484L776 484L776 599L209 599M922 430L922 331L564 331L564 34Q564-40 533-66.50Q502-93 413-99L337-105L306-1L390 4Q433 6 448 18.50Q463 31 463 64L463 331L61 331L61 430L922 430Z"  horiz-adv-x="984" vert-adv-y="1000"  />

    
    <glyph glyph-name="uni5B9E" unicode="&#x5B9E;" d="M193 605L193 491L95 491L95 697L457 697Q431 779 426 793L527 807Q541 772 565 697L891 697L891 489L791 489L791 605L193 605M506 468L468 378Q429 407 359 448.50Q289 490 245 511L289 592Q412 532 506 468M916-5L877-101Q739-37 520 57Q460 2 360.50-37Q261-76 104-109L70-13Q238 19 330.50 56.50Q423 94 470 148L69 148L69 242L383 242Q270 317 164 366L205 444Q348 377 438 315L403 242L518 242Q531 287 536 394L541 571L642 567Q642 550 640 474.50Q638 399 638 381Q635 298 622 242L913 242L913 148L589 148L580 131Q624 113 749.50 63Q875 13 916-5Z"  horiz-adv-x="984" vert-adv-y="1000"  />

    
    <glyph glyph-name="uni5BA2" unicode="&#x5BA2;" d="M936 286L918 192Q668 229 489 298Q351 244 199 209L797 209L797-91L701-91L701-57L285-57L285-91L188-91L188 207Q142 195 57 182L33 276Q220 298 381 348Q319 381 260 425Q207 383 134 338L80 414Q150 452 226 515.50Q302 579 340 630L424 588Q406 563 396 553L791 553L791 631L196 631L196 526L99 526L99 717L446 717Q436 751 421 796L522 811Q548 734 553 717L888 717L888 525L802 525L802 475Q713 404 600 347Q730 309 936 286M655 473L337 473Q404 421 490 386Q595 428 655 473M701 126L285 126L285 22L701 22L701 126Z"  horiz-adv-x="984" vert-adv-y="1000"  />

    
    <glyph glyph-name="uni5BF9" unicode="&#x5BF9;" d="M936 614L936 514L822 514L822 48Q822-26 791-54Q760-82 675-88L589-94L556 6L652 11Q694 13 707 26.50Q720 40 720 76L720 514L459 514L459 614L720 614L720 798L822 794L822 614L936 614M437 703L437 603Q408 434 342 288Q450 133 489 76L411 6Q368 73 290 187Q212 52 97-80L29 0Q156 140 229 277Q77 493 72 499L147 555Q238 432 276 379Q320 485 340 604L73 604L73 703L437 703M675 237L599 176Q526 307 449 410L525 461Q613 353 675 237Z"  horiz-adv-x="984" vert-adv-y="1000"  />

    
    <glyph glyph-name="uni5BFA" unicode="&#x5BFA;" d="M924 394L725 394L725 291L889 291L889 199L725 199L725 38Q725-35 698-59.50Q671-84 580-90L491-96L462 0L545 4Q592 6 606 18.50Q620 31 620 68L620 199L298 199Q376 130 440 63L374-18Q290 73 199 154L242 199L84 199L84 291L620 291L620 394L48 394L48 489L436 489L436 599L126 599L126 693L436 693L436 800L537 796L537 693L847 693L847 599L537 599L537 489L924 489L924 394Z"  horiz-adv-x="984" vert-adv-y="1000"  />

    
    <glyph glyph-name="uni5C65" unicode="&#x5C65;" d="M886 767L886 568L375 568L433 525Q338 381 265 315L227 365Q220 82 116-110L31-65Q93 54 116 155Q139 256 139 438L139 767L886 767M799 640L799 691L228 691L228 640L799 640M228 426L228 388Q300 451 369 568L228 568L228 426M943-30L927-101Q773-70 673-30Q572-74 420-103L394-30Q491-16 587 12Q540 39 503 72Q468 37 418 1L380 60Q460 118 515 195L457 195L457 350L447 340L397 395Q477 477 517 568L590 543Q587 538 581 527.50Q575 517 572 511L910 511L910 451L535 451Q523 432 508 412L867 412L867 195L563 195L592 181L573 153L875 153L875 97Q795 35 751 11Q834-16 943-30M364 372L430 335Q415 306 375 244L375-105L297-105L297 143Q290 135 276 119.50Q262 104 254 97L210 164Q297 248 364 372M787 359L538 359L538 329L787 329L787 359M538 247L787 247L787 279L538 279L538 247M763 101L565 101Q607 69 667 42Q730 71 763 101Z"  horiz-adv-x="984" vert-adv-y="1000"  />

    
    <glyph glyph-name="uni5DE7" unicode="&#x5DE7;" d="M924 646L613 646L582 444L885 444Q883 422 874 267.50Q865 113 863 91Q857 4 818.50-26.50Q780-57 675-65L587-72L555 25L662 31Q719 33 737.50 51Q756 69 760 123L777 346L463 346L510 646L433 646L433 744L924 744L924 646M297 616L297 209Q395 233 443 248L451 142Q278 95 61 47L41 153L197 185L197 616L69 616L69 716L408 716L408 616L297 616Z"  horiz-adv-x="984" vert-adv-y="1000"  />

    
    <glyph glyph-name="uni5E0C" unicode="&#x5E0C;" d="M139 505L118 589Q213 609 352 653Q179 711 154 718L183 802Q212 793 494 698Q687 765 774 808L813 726Q752 697 630 651Q776 600 855 569L830 481Q674 541 494 603Q277 533 139 505M928 389L392 389Q353 337 306 284L462 284L462 360L560 356L560 284L838 284L838 67Q838 6 814-14Q790-34 720-43L669-49L638 39L689 44Q723 48 733 56.50Q743 65 743 91L743 196L560 196L560-93L462-93L462 196L291 196L291-43L191-43L191 174Q149 138 78 85L31 171Q184 273 278 389L71 389L71 476L339 476Q366 519 384 559L476 534Q460 498 447 476L928 476L928 389Z"  horiz-adv-x="984" vert-adv-y="1000"  />

    
    <glyph glyph-name="uni5EB5" unicode="&#x5EB5;" d="M846 43Q853 80 853 105L936 76Q935 53 928 20Q916-39 893.50-58Q871-77 805-81Q710-87 619-81Q558-77 535-56Q512-35 512 20L512 47L294 47L294 295Q286 289 242 264L215 321Q211 188 188.50 97.50Q166 7 115-94L31-47Q88 63 109 153.50Q130 244 130 393L130 717L496 717Q486 750 472 790L573 807Q587 770 605 717L919 717L919 637L216 637L216 402Q216 364 215 347Q337 411 406 486L242 486L242 562L463 562Q483 592 501 637L582 612L558 562L893 562L893 486L706 486Q781 400 939 339L903 262Q855 282 818 304L818 47L601 47L601 42Q601 16 610 7Q619-2 650-5Q719-11 788-5Q821-3 830.50 5.50Q840 14 846 43M606 486L511 486Q470 427 407 375L512 375L512 446L601 442L601 375L713 375Q649 426 606 486M512 247L512 302L383 302L383 247L512 247M601 302L601 247L734 247L734 302L601 302M383 121L512 121L512 181L383 181L383 121M601 121L734 121L734 181L601 181L601 121Z"  horiz-adv-x="984" vert-adv-y="1000"  />

    
    <glyph glyph-name="uni5F39" unicode="&#x5F39;" d="M938 155L938 63L679 63L679-100L587-100L587 63L356 63L356 155L587 155L587 231L391 231L391 669L508 669L443 774L520 820Q534 803 563.50 756.50Q593 710 606 687L580 669L663 669Q716 750 752 819L831 781Q808 739 763 669L877 669L877 231L679 231L679 155L938 155M77 656L77 749L341 749L341 438L183 438L174 323L335 323Q335 306 330.50 183Q326 60 326 42Q322-25 292-50.50Q262-76 187-82L120-88L89 3L165 8Q204 10 218 23Q232 36 234 69Q234 82 238.50 151Q243 220 243 232L82 232L102 532L254 532L254 656L77 656M587 579L478 579L478 493L587 493L587 579M789 493L789 579L679 579L679 493L789 493M478 320L587 320L587 407L478 407L478 320M679 320L789 320L789 407L679 407L679 320Z"  horiz-adv-x="984" vert-adv-y="1000"  />

    
    <glyph glyph-name="uni5F80" unicode="&#x5F80;" d="M277 800L358 738Q319 681 246 602Q173 523 110 468L62 554Q116 602 179.50 675Q243 748 277 800M664 36L934 36L934-60L310-60L310 36L565 36L565 257L362 257L362 355L565 355L565 546L347 546L347 643L576 643Q556 727 537 778L641 794Q649 772 688 643L901 643L901 546L664 546L664 355L870 355L870 257L664 257L664 36M270 547L348 493Q324 447 269 370L269-94L172-94L172 248Q122 192 74 147L32 248Q90 302 162.50 391Q235 480 270 547Z"  horiz-adv-x="984" vert-adv-y="1000"  />

    
    <glyph glyph-name="uni5FC3" unicode="&#x5FC3;" d="M368 745L445 805Q577 638 661 519L578 446Q506 557 368 745M388 595L388 96Q388 55 401 43.50Q414 32 457 28Q511 24 563 28Q611 32 626 45.50Q641 59 647 98Q655 137 660 204L764 169Q759 110 748 59Q732-17 701-43.50Q670-70 583-76Q509-81 435-76Q347-70 314-40Q281-10 281 77L281 599L388 595M695 494L786 536Q861 388 958 168L866 118Q775 333 695 494M128 102L30 135Q91 288 149 515L250 493Q205 302 128 102Z"  horiz-adv-x="984" vert-adv-y="1000"  />

    
    <glyph glyph-name="uni6027" unicode="&#x6027;" d="M700 40L931 40L931-59L349-59L349 40L601 40L601 240L399 240L399 338L601 338L601 512L486 512Q456 408 437 356L346 387Q367 439 390 520L354 478Q322 524 276 578L276-94L181-94L181 802L276 798L276 622L319 660Q369 600 401 559Q427 662 438 747L530 735Q511 621 510 614L601 614L601 799L700 795L700 614L905 614L905 512L700 512L700 338L883 338L883 240L700 240L700 40M113 269L28 288Q70 491 88 643L173 631Q149 450 113 269Z"  horiz-adv-x="984" vert-adv-y="1000"  />

    
    <glyph glyph-name="uni6211" unicode="&#x6211;" d="M850 156L932 106Q920 66 901 13Q856-100 777-100Q701-100 643 1Q620 42 604 81Q515 14 403-41L355 51Q483 111 573 178Q546 288 530 435L343 435L343 315Q467 342 484 346L491 296L496 250L343 217L343 32Q343-31 314.50-53Q286-75 211-84L154-90L123 4L193 9Q228 11 235.50 20Q243 29 243 60L243 196L69 162L53 261Q179 283 243 295L243 435L63 435L63 529L243 529L243 639Q190 631 94 622L86 714Q279 730 451 773L467 681Q396 665 343 655L343 529L523 529Q521 541 519 599L510 798L609 794Q609 744 617 603Q619 555 622 529L921 529L921 435L629 435Q641 308 654 244Q738 321 804 424L882 373Q795 240 681 142Q699 88 725 50Q750 7 777 7Q791 7 802.50 20Q814 33 827 72Q841 111 850 156M874 619L813 545Q749 621 650 714L711 776Q806 695 874 619Z"  horiz-adv-x="984" vert-adv-y="1000"  />

    
    <glyph glyph-name="uni6237" unicode="&#x6237;" d="M872 683L872 289L255 289Q246 158 216.50 75Q187-8 122-109L28-54Q80 20 105.50 73.50Q131 127 144.50 206Q158 285 158 407L158 683L467 683Q442 762 434 784L543 804Q567 742 586 683L872 683M771 385L771 590L259 590L259 429L259 385L771 385Z"  horiz-adv-x="984" vert-adv-y="1000"  />

    
    <glyph glyph-name="uni6240" unicode="&#x6240;" d="M935 471L935 372L808 372L808-89L712-89L712 372L588 372Q584 202 551 103Q518 4 423-111L343-42Q437 64 465 150.50Q493 237 493 420L493 718Q691 734 861 791L889 691Q737 643 588 627L588 471L935 471M425 196L213 196Q204 104 184 45Q164-14 119-107L26-58Q87 51 106.50 135.50Q126 220 126 404L126 730Q310 749 446 789L469 689Q364 657 220 639L220 536L425 536L425 196M331 442L220 442L220 402Q220 357 218 291L331 291L331 442Z"  horiz-adv-x="984" vert-adv-y="1000"  />

    
    <glyph glyph-name="uni624B" unicode="&#x624B;" d="M932 276L932 175L554 175L554 30Q554-43 526.50-67.50Q499-92 419-98L344-104L311-1L384 5Q428 9 438 17.50Q448 26 448 64L448 175L55 175L55 276L448 276L448 402L134 402L134 503L448 503L448 645Q225 631 124 627L117 728Q265 731 479.50 747Q694 763 843 783L856 681Q750 667 554 653L554 503L853 503L853 402L554 402L554 276L932 276Z"  horiz-adv-x="984" vert-adv-y="1000"  />

    
    <glyph glyph-name="uni627E" unicode="&#x627E;" d="M855 164L937 117Q923 49 913 19Q891-46 861.50-75.50Q832-105 788-105Q705-105 636 11Q609 59 592 106Q492 34 367-23L317 72Q455 131 562 207Q539 303 522 454L373 435L362 529L514 548Q512 558 511 579Q510 600 509 610Q506 681 497 801L590 804Q592 747 603 601L606 560L918 599L928 507L615 466Q628 358 646 274Q742 358 808 461L885 406Q796 273 674 169Q693 109 725 57Q756 5 788 5Q814 5 835 72Q847 109 855 164M393 414L404 319Q363 303 291 278L291 21Q291-47 269-67.50Q247-88 171-96L123-101L90 1L140 5Q178 9 185.50 15.50Q193 22 193 54L193 245Q87 211 56 203L36 299Q85 310 193 344L193 536L67 536L67 627L193 627L193 799L291 795L291 627L394 627L394 536L291 536L291 377Q328 389 393 414M844 655L790 584Q732 659 636 729L692 790Q782 724 844 655Z"  horiz-adv-x="984" vert-adv-y="1000"  />

    
    <glyph glyph-name="uni62A2" unicode="&#x62A2;" d="M603 222L651 226Q687 228 699 238.50Q711 249 713 280L717 378L509 378L509 83Q509 39 520 26.50Q531 14 574 12Q659 7 723 12Q763 14 775 26Q787 38 796 77Q799 90 806 145L903 104Q896 49 890 30Q872-38 844-59Q816-80 735-84Q640-89 547-84Q471-80 441-51.50Q411-23 411 55L411 419Q388 400 363 380L349 404L366 308L277 279L277 9Q277-50 254-68Q231-86 158-95L118-100L87 3L136 7Q165 10 173 16.50Q181 23 181 49L181 249Q112 228 53 215L40 320Q88 331 181 357L181 536L72 536L72 632L181 632L181 799L277 795L277 632L382 632L382 536L277 536L277 386L346 408L311 469Q394 535 469 625.50Q544 716 586 810L666 810Q707 717 785.50 627.50Q864 538 953 478L909 374Q854 415 811 455L807 257Q807 193 781.50 167.50Q756 142 685 136L630 131L603 222M471 476L788 476Q676 583 627 698Q568 578 471 476Z"  horiz-adv-x="984" vert-adv-y="1000"  />

    
    <glyph glyph-name="uni62A4" unicode="&#x62A4;" d="M898 684L898 291L512 291Q504 158 476.50 74Q449-10 385-114L293-60Q367 46 390.50 137Q414 228 414 409L414 684L604 684Q585 753 571 792L675 807Q684 783 713 684L898 684M366 437L380 334Q303 303 280 294L280 4Q280-54 257.50-72Q235-90 163-99L113-105L81-7L132-1Q163 2 172 8.50Q181 15 181 38L181 257Q80 222 56 215L34 315Q92 332 181 364L181 537L73 537L73 635L181 635L181 800L280 796L280 635L377 635L377 537L280 537L280 402L366 437M801 389L801 588L515 588L515 429L515 389L801 389Z"  horiz-adv-x="984" vert-adv-y="1000"  />

    
    <glyph glyph-name="uni6325" unicode="&#x6325;" d="M360 327L269 290L269 12Q269-49 246-68.50Q223-88 156-94L106-99L78-1L131 3Q157 5 165.50 13Q174 21 174 48L174 255Q90 226 62 217L40 315Q105 337 174 363L174 531L73 531L73 631L174 631L174 801L269 797L269 631L350 631L350 531L269 531L269 401L339 430L360 327M462 665L462 582L365 582L365 757L905 757L905 582L808 582L808 665L462 665M935 138L935 44L702 44L702-99L603-99L603 44L323 44L323 138L603 138L603 226L375 226L375 317Q419 378 462 456L359 456L359 546L510 546Q534 591 563 660L646 624Q642 614 630.50 587.50Q619 561 612 546L892 546L892 456L567 456Q520 368 486 317L603 317L603 430L702 426L702 317L883 317L883 226L702 226L702 138L935 138Z"  horiz-adv-x="984" vert-adv-y="1000"  />

    
    <glyph glyph-name="uni63A8" unicode="&#x63A8;" d="M938 55L938-37L481-37L481-98L385-98L385 430L362 396L292 472Q322 510 342 546L273 546L273 387Q313 399 337 408L349 309Q327 300 273 283L273 19Q273-42 249.50-60.50Q226-79 154-88L111-93L81 4L131 8Q160 11 168 18.50Q176 26 176 51L176 253Q135 240 54 219L35 319Q51 324 99 336.50Q147 349 176 358L176 546L71 546L71 643L176 643L176 802L273 798L273 643L363 643L363 583Q419 688 444 815L541 797Q523 726 499 659L650 659Q624 757 616 781L707 794Q715 772 748 659L916 659L916 569L733 569L733 461L898 461L898 372L733 372L733 265L898 265L898 174L733 174L733 55L938 55M636 461L636 569L481 569L481 461L636 461M636 265L636 372L481 372L481 265L636 265M481 174L481 55L636 55L636 174L481 174Z"  horiz-adv-x="984" vert-adv-y="1000"  />

    
    <glyph glyph-name="uni6570" unicode="&#x6570;" d="M751 161Q818 68 942-31L882-115Q766-17 695 79Q627-6 493-112L444-44L435-62Q430-59 388.50-36Q347-13 323-1Q232-62 74-114L34-27Q148 7 231 46Q139 93 96 113Q107 132 141 195L59 195L59 276L181 276Q205 335 209 347L299 322L281 276L491 276L491 199Q452 113 400 61Q411 55 437 42Q463 29 478 21L463-7Q576 75 639 165Q580 272 555 393L542 370L472 438Q518 509 557 611.50Q596 714 615 805L707 788Q694 730 669 649L921 649L921 550L856 550Q832 302 751 161M78 296L39 377Q155 440 228 513L63 513L63 596L256 596L256 797L344 793L344 596L514 596L514 513L344 513L344 466L374 504Q437 461 513 390L462 322Q420 368 344 426L344 341L256 341L256 435Q180 356 78 296M233 653L168 607Q133 674 84 737L144 781Q203 706 233 653M454 780L521 735Q482 666 428 601L363 647Q414 708 454 780M632 550L620 522Q637 371 693 257Q746 367 766 550L632 550M245 195L220 145L318 100Q366 138 392 195L245 195Z"  horiz-adv-x="984" vert-adv-y="1000"  />

    
    <glyph glyph-name="uni65B9" unicode="&#x65B9;" d="M919 578L404 578Q402 560 400.50 520.50Q399 481 398 460Q398 458 397.50 453Q397 448 397 445L810 445Q808 427 798.50 262.50Q789 98 787 80Q779-11 742-42Q705-73 609-79L503-85L472 18L572 24Q639 28 659 44Q679 60 685 116Q687 127 692.50 231Q698 335 700 346L388 346Q368 201 306.50 95.50Q245-10 114-119L38-32Q179 79 230.50 182.50Q282 286 294 472Q298 522 300 578L69 578L69 677L452 677Q446 696 434.50 733Q423 770 418 790L523 810L565 677L919 677L919 578Z"  horiz-adv-x="984" vert-adv-y="1000"  />

    
    <glyph glyph-name="uni65C5" unicode="&#x65C5;" d="M766 208Q821 86 948-11L883-95Q773-8 710.50 113Q648 234 622 416Q598 411 552 405L552 29L687 87L697-15Q625-38 469-106L432-21Q460 0 460 34L460 474L447 458L372 519Q391 541 411 572L234 572L234 460L396 460Q388 69 385 17Q383-38 361-56.50Q339-75 274-81L230-85L198 10L241 13Q265 14 277 22Q289 30 292 39Q295 48 298 70Q301 87 304.50 214.50Q308 342 308 365L231 365Q223 210 196 111.50Q169 13 110-103L25-59Q91 75 114 164Q137 253 135 420Q135 426 135.50 482Q136 538 136 572L67 572L67 666L206 666Q184 751 168 794L260 807Q286 733 304 666L415 666L415 577Q487 685 528 814L627 791Q623 781 613 753Q603 725 597 710L918 710L918 617L553 617Q520 554 471 488Q695 514 859 571L891 485Q818 457 708 432Q720 351 734 300Q803 339 879 394L928 307Q841 252 766 208Z"  horiz-adv-x="984" vert-adv-y="1000"  />

    
    <glyph glyph-name="uni65E0" unicode="&#x65E0;" d="M908 381L493 381Q460 224 368.50 107.50Q277-9 107-118L40-23Q189 67 269.50 161Q350 255 382 381L76 381L76 477L400 477Q405 516 406 559Q406 563 408 598.50Q410 634 410 657L132 657L132 755L851 755L851 657L517 657Q515 561 514 551Q512 513 508 477L908 477L908 381M821 185L918 152Q916 95 908 39Q898-27 868-52Q838-77 762-79Q689-82 617-79Q549-77 518-47.50Q487-18 487 54L487 348L590 344L590 83Q590 48 602.50 34.50Q615 21 648 19Q695 16 739 19Q780 21 795.50 34Q811 47 815 84Q821 132 821 185Z"  horiz-adv-x="984" vert-adv-y="1000"  />

    
    <glyph glyph-name="uni660E" unicode="&#x660E;" d="M489 759L875 759L875 31Q875-39 849.50-63Q824-87 748-93L690-98L659-3L725 3Q761 5 771 14.50Q781 24 781 55L781 186L572 186Q555 94 513.50 26.50Q472-41 393-119L315-58Q365-11 394 24Q423 59 444 95Q465 131 473.50 179.50Q482 228 485.50 281.50Q489 335 489 427L489 759M413 740L413 52L101 52L101 740L413 740M781 664L586 664L586 517L781 517L781 664M324 643L192 643L192 449L324 449L324 643M583 283L781 283L781 422L586 422L586 379Q586 328 583 283M192 151L324 151L324 350L192 350L192 151Z"  horiz-adv-x="984" vert-adv-y="1000"  />

    
    <glyph glyph-name="uni671B" unicode="&#x671B;" d="M143 478L143 614L68 614L68 699L215 699Q205 739 188 786L278 803Q289 771 312 699L446 699L446 614L240 614L240 472L407 534L416 439Q318 409 155 344L118 428Q135 436 139 445Q143 454 143 478M442 313L358 366Q428 425 447.50 470Q467 515 467 604L467 776L864 776L864 437Q864 385 843.50 364.50Q823 344 763 338L677 330L649 412L719 420Q750 424 759 432Q768 440 768 468L551 468Q542 426 518 393Q494 360 442 313M768 699L560 699L560 653L768 653L768 699M768 584L560 584Q560 552 559 537L768 537L768 584M544 15L926 15L926-67L58-67L58 15L442 15L442 87L161 87L161 169L442 169L442 232L116 232L116 311L869 311L869 232L544 232L544 169L823 169L823 87L544 87L544 15Z"  horiz-adv-x="984" vert-adv-y="1000"  />

    
    <glyph glyph-name="uni672A" unicode="&#x672A;" d="M901 336L589 336Q716 174 949 45L886-52Q667 96 542 263L542-92L444-92L444 262Q384 182 304.50 110.50Q225 39 99-52L36 42Q283 186 399 336L84 336L84 431L444 431L444 576L145 576L145 672L444 672L444 808L542 804L542 672L840 672L840 576L542 576L542 431L901 431L901 336Z"  horiz-adv-x="984" vert-adv-y="1000"  />

    
    <glyph glyph-name="uni673A" unicode="&#x673A;" d="M438 301L376 237Q333 294 284 350L284-103L191-103L191 309Q152 225 91 138L26 212Q133 374 186 530L65 530L65 626L191 626L191 804L284 800L284 626L406 626L406 530L284 530L284 423L312 448Q383 377 438 301M852 190L943 163Q943 93 935 21Q929-42 907.50-63Q886-84 827-84L777-84Q727-84 705.50-59.50Q684-35 684 27L684 645L541 645L541 403Q541 199 511 94.50Q481-10 388-114L302-56Q390 41 416 127Q442 213 442 404L442 746L784 746L784 55Q784 30 788.50 24Q793 18 810 18L816 18Q831 18 835.50 25.50Q840 33 844 63Q851 114 852 190Z"  horiz-adv-x="984" vert-adv-y="1000"  />

    
    <glyph glyph-name="uni6765" unicode="&#x6765;" d="M913 286L577 286Q709 147 942 47L896-53Q671 52 541 188L541-100L441-100L441 181Q317 53 88-59L40 44Q277 146 406 286L70 286L70 380L298 380Q234 475 164 549L229 606L108 606L108 701L441 701L441 810L541 806L541 701L875 701L875 606L759 606L821 553Q760 466 683 380L913 380L913 286M441 606L249 606Q306 544 372 450L300 380L441 380L441 606M737 606L541 606L541 380L673 380L607 443Q672 511 737 606Z"  horiz-adv-x="984" vert-adv-y="1000"  />

    
    <glyph glyph-name="uni677E" unicode="&#x677E;" d="M430 295L363 231Q335 276 279 347L279-98L187-98L187 328Q133 203 83 131L17 203Q120 358 180 531L66 531L66 626L187 626L187 811L279 807L279 626L397 626L397 531L279 531L279 431L302 453Q365 384 430 295M958 377L877 318Q794 415 738.50 527Q683 639 648 789L736 811Q792 568 958 377M424 349L350 415Q466 561 522 773L613 751Q544 510 424 349M666 238L751 271Q810 163 898-58L806-102Q794-62 780-28Q617-37 402-66L375 34Q403 52 419 78Q497 217 574 460L667 432Q597 202 511 50L742 70Q691 190 666 238Z"  horiz-adv-x="984" vert-adv-y="1000"  />

    
    <glyph glyph-name="uni6B22" unicode="&#x6B22;" d="M462 377L382 431Q483 615 528 813L623 795Q606 727 589 673L908 673L908 580L820 378L734 414L811 574L555 574Q518 476 462 377M440 102L359 38Q347 61 271 189Q194 36 103-76L27 0Q139 133 210 287Q112 438 63 505L140 563Q169 526 254 399Q289 505 306 626L78 626L78 722L407 722L407 626Q377 448 319 299Q409 158 440 102M677 395Q691 268 758 167Q825 66 949-18L881-107Q705 24 640 198Q577 29 387-116L315-31Q461 70 522 174Q583 278 585 424L585 529L680 525Q680 509 679 469Q678 429 678 423Q678 406 677 395Z"  horiz-adv-x="984" vert-adv-y="1000"  />

    
    <glyph glyph-name="uni6B3E" unicode="&#x6B3E;" d="M561 379L479 425Q560 577 606 805L698 785Q676 689 667 657L913 657L913 568Q907 554 877 469.50Q847 385 841 370L751 392Q757 409 785.50 482.50Q814 556 817 563L638 563Q609 478 561 379M243 547L243 622L64 622L64 706L243 706L243 798L338 794L338 706L513 706L513 622L338 622L338 547L487 547L487 470L89 470L89 547L243 547M727 353Q755 113 954-39L890-123Q747 1 687 156Q631 8 488-123L416-50Q540 60 589 161.50Q638 263 638 415L638 523L730 519Q730 507 729.50 468.50Q729 430 729 414Q729 393 727 353M475 330L101 330L101 414L475 414L475 330M518 184L342 184L342 3Q342-58 320.50-78.50Q299-99 235-105L186-110L156-17L203-13Q236-9 244.50-2Q253 5 253 36L253 184L58 184L58 272L518 272L518 184M508 52L440 1Q405 66 354 128L422 172Q479 101 508 52M119 168L196 132Q144 2 97-73L23-25Q80 69 119 168Z"  horiz-adv-x="984" vert-adv-y="1000"  />

    
    <glyph glyph-name="uni6B64" unicode="&#x6B64;" d="M836 205L929 173Q929 148 918 56Q906-20 875.50-48.50Q845-77 769-79Q733-80 697-79Q622-77 592-45.50Q562-14 562 68L562 806L661 802L661 475Q756 546 848 644L915 559Q807 447 661 346L661 86Q661 52 674 39Q687 26 720 24Q741 22 764 24Q801 26 811.50 38Q822 50 828 92Q829 96 836 205M420 430L420 121L536 148L545 45Q503 34 297.50-12.50Q92-59 57-64L43 40Q48 41 60 43.50Q72 46 92.50 50Q113 54 130 58L130 635L227 631L227 79L322 99L322 790L420 786L420 533L534 533L534 430L420 430Z"  horiz-adv-x="984" vert-adv-y="1000"  />

    
    <glyph glyph-name="uni6B7B" unicode="&#x6B7B;" d="M827 190L918 155Q916 92 909 43Q899-23 870-48.50Q841-74 772-76Q717-77 662-76Q598-74 570-44.50Q542-15 542 53L542 664L324 664Q305 591 283 531L501 531L501 441Q463 259 377 138.50Q291 18 111-112L38-27Q204 80 290 188.50Q376 297 406 437L245 437Q230 405 210 366Q296 290 324 261L268 184Q229 228 163 287Q130 236 88 181L26 264Q164 437 226 664L60 664L60 756L903 756L903 664L640 664L640 380Q758 467 832 554L898 474Q782 358 640 256L640 85Q640 47 649.50 37Q659 27 695 25Q722 24 749 25Q789 27 801 37Q813 47 819 83Q827 147 827 190Z"  horiz-adv-x="984" vert-adv-y="1000"  />

    
    <glyph glyph-name="uni6BBF" unicode="&#x6BBF;" d="M187 505L187 439Q187 249 168.50 141.50Q150 34 102-93L17-61Q66 70 82.50 161Q99 252 99 443L99 761L509 761L509 505L187 505M584 421L508 470Q547 515 559.50 551Q572 587 572 653L572 761L835 761L835 582Q835 558 839 552.50Q843 547 862 547L924 547L911 456L825 456Q785 456 767 475.50Q749 495 749 542L749 673L658 673L658 621Q658 559 641 514.50Q624 470 584 421M422 677L187 677L187 590L422 590L422 677M185 224L242 224L242 326L196 326L196 408L242 408L242 488L319 484L319 408L370 408L370 488L447 484L447 408L501 408L501 326L447 326L447 224L527 224L527 141L185 141L185 224M940-21L892-105Q773-38 699 33Q626-38 504-108L456-26Q563 30 641 98Q585 171 548 294L613 320L528 320L528 415L876 415L876 319Q838 192 760 97Q824 40 940-21M319 326L319 224L370 224L370 326L319 326M785 320L627 320Q649 227 701 160Q764 235 785 320M210-98L140-51Q218 41 266 129L336 91Q288 2 210-98M356 87L424 129Q460 85 497 23L431-27Q403 28 356 87Z"  horiz-adv-x="984" vert-adv-y="1000"  />

    
    <glyph glyph-name="uni6BD5" unicode="&#x6BD5;" d="M610 302Q559 306 534.50 332Q510 358 510 421L510 802L610 798L610 621Q754 695 841 754L890 665Q844 635 758 589Q672 543 610 515L610 452Q610 420 621 408.50Q632 397 660 395Q713 389 763 395Q797 399 809.50 410Q822 421 826 455Q831 493 831 537L921 507Q915 438 911 410Q902 349 873.50 328.50Q845 308 774 302Q692 296 610 302M479 476L483 377Q400 352 182 267L140 362Q160 371 164.50 381.50Q169 392 169 417L169 800L270 796L270 655L477 655L477 563L270 563L270 405L479 476M929 189L929 89L544 89L544-102L444-102L444 89L58 89L58 189L444 189L444 297L544 293L544 189L929 189Z"  horiz-adv-x="984" vert-adv-y="1000"  />

    
    <glyph glyph-name="uni6C38" unicode="&#x6C38;" d="M662 717L632 621Q556 659 332 739L363 829Q409 814 522 772.50Q635 731 662 717M663 324Q775 165 953 50L888-46Q681 99 555 316L555 26Q555-48 527-72.50Q499-97 423-103L354-109L323-6L388 0Q431 4 441 13Q451 22 451 59L451 524L152 524L152 621L555 621L555 525Q577 468 609 410Q734 515 810 600L886 521Q769 411 663 324M405 423L405 328Q331 128 104-54L30 34Q234 180 300 326L79 326L79 423L405 423Z"  horiz-adv-x="984" vert-adv-y="1000"  />

    
    <glyph glyph-name="uni6D6A" unicode="&#x6D6A;" d="M719 110Q796 46 937-2L888-94Q735-30 644 56.50Q553 143 498 285L427 285L427 31L579 90L591-10Q585-12 536-32Q487-52 431.50-74Q376-96 339-112L301-15Q321-6 325.50 4Q330 14 330 37L330 714L532 714Q517 771 506 805L603 818Q613 794 635 714L836 714L836 292L842 297L900 223Q845 185 719 110M313 646L260 560Q199 621 80 701L134 779Q239 710 313 646M742 628L427 628L427 542L742 542L742 628M35 485L92 563Q187 497 274 416L220 329Q166 384 35 485M427 457L427 372L742 372L742 457L427 457M826 285L593 285Q620 221 658 172Q764 238 826 285M155-98L60-60Q74-29 120.50 107.50Q167 244 177 281L266 245Q198 19 155-98Z"  horiz-adv-x="984" vert-adv-y="1000"  />

    
    <glyph glyph-name="uni6DAF" unicode="&#x6DAF;" d="M303 661L250 576Q220 606 168.50 647.50Q117 689 84 711L138 784Q232 724 303 661M409 662L409 417Q409 235 385 124Q361 13 299-104L209-58Q272 51 296 155Q320 259 320 421L320 750L925 750L925 662L409 662M417 393L610 393L610 486L440 486L440 566L610 566L610 647L707 643L707 566L874 566L874 486L707 486L707 393L913 393L913 309L417 309L417 393M270 433L216 352Q180 388 126 433Q72 478 39 499L95 569Q135 543 188.50 502Q242 461 270 433M164 312L253 279Q238 208 203.50 90Q169-28 146-86L53-47Q77 16 112.50 131Q148 246 164 312M707 19L932 19L932-66L379-66L379 19L610 19L610 129L435 129L435 211L610 211L610 293L707 289L707 211L878 211L878 129L707 129L707 19Z"  horiz-adv-x="984" vert-adv-y="1000"  />

    
    <glyph glyph-name="uni6DD8" unicode="&#x6DD8;" d="M487 723L905 723Q905 710 900 374Q895 38 895 25Q893-45 863.50-68.50Q834-92 751-98L672-104L641-7L723-1Q769 3 782.50 16.50Q796 30 796 69Q799 104 802 334.50Q805 565 805 629L438 629Q398 560 345 491L262 543Q376 683 419 820L518 800Q507 769 487 723M313 674L254 590Q207 641 86 731L142 802Q217 757 313 674M328 227L414 223L414 107L491 107L491 268L294 268L294 354L491 354L491 446L443 446Q404 384 391 367L313 413Q389 513 427 603L510 579L490 533L737 533L737 446L587 446L587 354L773 354L773 268L587 268L587 107L659 107L659 228L744 224L744 21L328 21L328 227M54 498L112 572Q205 504 282 436L227 352Q108 463 54 498M174-82L80-52Q93-17 134.50 126Q176 269 182 300L271 272Q263 232 225 92Q187-48 174-82Z"  horiz-adv-x="984" vert-adv-y="1000"  />

    
    <glyph glyph-name="uni7206" unicode="&#x7206;" d="M953 134L921 57Q841 95 782 141Q759 121 713 83Q792 50 907 0L874-72Q849-60 807.50-40.50Q766-21 718 1.50Q670 24 655 31L683 95L697 89L657 134Q687 155 729 190Q714 205 684 245L541 245Q522 216 499 191Q508 183 532 160.50Q556 138 565 130L528 89Q531 91 535 92.50Q539 94 541.50 95Q544 96 545 97L555 66L568 30L335-64L308 4Q346 20 506 80Q497 90 445 140Q394 96 316 55L288 112L272 96Q261 119 222 172Q195 47 114-102L30-56Q107 75 136.50 175Q166 275 166 426L166 799L249 795L249 510Q287 590 304 638L356 615L356 779L865 779L865 488L762 488L762 437L888 437L888 368L762 368L762 316L915 316L915 245L779 245Q844 174 953 134M780 709L441 709L441 665L780 665L780 709M159 364L83 347Q83 396 37 626L108 644Q117 616 138 502Q159 388 159 364M441 555L780 555L780 600L441 600L441 555M335 157L331 153Q401 192 446 245L308 245L308 316L460 316L460 368L334 368L334 437L460 437L460 488L356 488L356 581Q308 465 281 418L248 437Q246 351 239 279Q279 231 335 157M678 437L678 488L544 488L544 437L678 437M678 316L678 368L544 368L544 316L678 316M577 13L577 222L653 218L653-15Q653-62 635.50-77Q618-92 562-98L524-102L498-25L539-21Q564-19 570.50-13.50Q577-8 577 13Z"  horiz-adv-x="984" vert-adv-y="1000"  />

    
    <glyph glyph-name="uni7269" unicode="&#x7269;" d="M529 657L903 657Q901 636 891 361.50Q881 87 878 66Q872-9 838-37Q804-65 723-71L640-77L611 17L696 23Q749 27 768 43Q787 59 791 109Q791 128 802 337Q813 546 813 564L771 564Q737 338 670 195.50Q603 53 449-88L388-15Q526 106 593 240Q660 374 692 564L631 564Q601 415 541.50 306.50Q482 198 368 86L309 161Q409 252 465.50 346.50Q522 441 550 564L485 564Q442 480 393 411L322 472Q348 507 357 521L288 521L288 348L381 385L390 289L288 247L288-96L202-96L202 212Q67 157 60 153L35 252Q57 257 202 314L202 521L148 521Q134 413 120 343L37 358Q71 509 85 726L168 719L159 615L202 615L202 807L288 803L288 615L370 615L370 542Q448 670 492 819L580 793Q552 709 529 657Z"  horiz-adv-x="984" vert-adv-y="1000"  />

    
    <glyph glyph-name="uni72C2" unicode="&#x72C2;" d="M351 788L419 715Q353 635 292 577Q329 490 342.50 386.50Q356 283 356 117Q356 34 339.50-9.50Q323-53 291-70Q259-87 197-93L132-99L100 4L166 10Q225 16 242 39Q259 62 259 149Q259 246 254 305Q176 205 74 130L34 231Q160 323 236 423Q226 466 212 505Q134 443 89 412L41 505Q119 562 168 603Q133 667 78 743L157 795Q200 741 243 671Q302 728 351 788M699 41L934 41L934-58L360-58L360 41L597 41L597 311L413 311L413 409L597 409L597 648L420 648L420 746L901 746L901 648L699 648L699 409L883 409L883 311L699 311L699 41Z"  horiz-adv-x="984" vert-adv-y="1000"  />

    
    <glyph glyph-name="uni731B" unicode="&#x731B;" d="M251 581Q284 496 296 391Q308 286 308 109Q308 45 301.50 7.50Q295-30 277.50-52Q260-74 236.50-82Q213-90 171-95L118-101L89-5L139 1Q187 7 203 33Q219 59 219 143Q219 236 215 299Q171 236 72 142L33 233Q131 316 201 422Q187 484 179 509Q119 457 85 431L43 522Q96 562 141 603Q109 669 63 742L140 788Q192 705 210 672Q260 726 300 783L370 727Q315 648 251 581M592 585L729 674L411 674L411 761L878 761L878 680L685 554L685 541L919 541L919 454L685 454L685 399Q685 338 665 321Q645 304 581 298L508 292L479 379L542 385Q576 387 584 394.50Q592 402 592 431L592 454L342 454L342 541L592 541L592 585M874 17L937 17L937-69L303-69L303 17L367 17L367 271L874 271L874 17M450 191L450 17L513 17L513 191L450 191M651 17L651 191L591 191L591 17L651 17M791 17L791 191L731 191L731 17L791 17Z"  horiz-adv-x="984" vert-adv-y="1000"  />

    
    <glyph glyph-name="uni73AB" unicode="&#x73AB;" d="M704 174Q800 71 953-19L893-116Q734-13 637 91Q534-18 358-120L296-23Q480 77 570 173Q499 273 463 395Q447 365 430 340L380 382L380 342L280 342L280 143Q395 172 406 175L414 75Q380 68 228.50 31Q77-6 52-14L38 88Q68 94 180 120L180 342L75 342L75 439L180 439L180 624L66 624L66 720L403 720L403 624L280 624L280 439L376 439Q423 517 465 622.50Q507 728 525 812L618 795Q602 728 579 658L927 658L927 555L837 555Q806 321 704 174M542 555L530 527Q559 368 637 257Q709 366 736 555L542 555Z"  horiz-adv-x="984" vert-adv-y="1000"  />

    
    <glyph glyph-name="uni7470" unicode="&#x7470;" d="M873 98L950 71Q945 27 943 13Q933-42 911.50-62Q890-82 833-84Q763-89 693-84Q632-82 606.50-58.50Q581-35 581 23L581 126Q500-5 322-118L270-31Q491 90 548 275L364 275L364 722L539 722Q545 741 554.50 775.50Q564 810 566 815L667 806Q649 743 641 722L868 722L868 275L765 275L795 264Q790 252 781.50 231Q773 210 770 203L818 227Q820 224 873 90L873 98M360 159L370 65Q301 52 51-16L36 77Q57 80 166 108L166 343L75 343L75 434L166 434L166 632L64 632L64 724L350 724L350 632L257 632L257 434L342 434L342 343L257 343L257 131Q338 152 360 159M571 638L450 638L450 540L571 540L571 638M783 540L783 638L658 638L658 540L783 540M450 361L566 361Q571 392 571 438L571 460L450 460L450 361M655 361L783 361L783 460L658 460L658 438Q658 398 655 361M641 275L632 242L667 240L667 154Q701 216 722 275L641 275M739 135L786 138Q779 156 764 189Q748 153 739 135M816 2Q845 4 854.50 12.50Q864 21 868 47L871 72L821 50Q820 54 818 60Q816 66 814 70L667 57L667 46Q667 20 676 12Q685 4 716 2Q764-3 816 2Z"  horiz-adv-x="984" vert-adv-y="1000"  />

    
    <glyph glyph-name="uni751F" unicode="&#x751F;" d="M563 36L930 36L930-63L74-63L74 36L460 36L460 247L169 247L169 344L460 344L460 521L251 521Q212 433 148 335L59 390Q178 555 231 770L330 746Q307 664 290 619L460 619L460 805L563 801L563 619L883 619L883 521L563 521L563 344L850 344L850 247L563 247L563 36Z"  horiz-adv-x="984" vert-adv-y="1000"  />

    
    <glyph glyph-name="uni7528" unicode="&#x7528;" d="M139 756L863 756L863 24Q863-44 837-68.50Q811-93 737-99L670-105L640-2L705 4Q747 8 756 16Q765 24 765 57L765 174L549 174L549-82L452-82L452 174L230 174Q221 95 196 28.50Q171-38 125-119L33-69Q79 7 99 53Q119 99 129 167Q139 235 139 350L139 756M452 657L238 657L238 510L452 510L452 657M765 510L765 657L549 657L549 510L765 510M237 273L452 273L452 411L238 411L238 313Q238 286 237 273M549 273L765 273L765 411L549 411L549 273Z"  horiz-adv-x="984" vert-adv-y="1000"  />

    
    <glyph glyph-name="uni7559" unicode="&#x7559;" d="M487 500L419 450Q414 462 403 481Q195 402 133 374L94 458Q115 475 115 501L115 738Q277 758 444 803L473 717Q313 676 208 660L215 500L361 556Q319 625 318 626L385 664Q399 648 435.50 587.50Q472 527 487 500M479 750L881 750Q880 737 873 637.50Q866 538 864 520Q860 449 834 428.50Q808 408 729 399L673 393L644 480L699 486Q743 491 756.50 500.50Q770 510 772 537Q783 623 783 667L639 667Q629 593 629 591Q614 520 580 463.50Q546 407 475 351L406 417Q477 472 507 514.50Q537 557 543 617Q547 640 549 667L479 667L479 750M146-99L146 349L836 349L836-99L738-99L738-57L244-57L244-99L146-99M441 271L244 271L244 184L441 184L441 271M738 184L738 271L538 271L538 184L738 184M244 20L441 20L441 105L244 105L244 20M538 20L738 20L738 105L538 105L538 20Z"  horiz-adv-x="984" vert-adv-y="1000"  />

    
    <glyph glyph-name="uni771F" unicode="&#x771F;" d="M935 148L935 74L618 74Q794 24 901-29L870-115Q694-33 563 1L592 74L384 74L417 8Q291-58 103-123L69-32Q216 8 345 74L46 74L46 148L186 148L186 599L442 599L442 649L87 649L87 729L442 729L442 804L541 800L541 729L895 729L895 649L541 649L541 599L796 599L796 148L935 148M702 528L281 528L281 481L702 481L702 528M702 370L702 416L281 416L281 370L702 370M702 306L281 306L281 259L702 259L702 306M281 196L281 148L702 148L702 196L281 196Z"  horiz-adv-x="984" vert-adv-y="1000"  />

    
    <glyph glyph-name="uni7AEF" unicode="&#x7AEF;" d="M863 750L863 534L374 534L374 754L455 750L455 617L578 617L578 807L658 803L658 617L782 617L782 754L863 750M340 643L340 552L56 552L56 643L159 643Q134 744 125 774L210 785Q219 758 244 643L340 643M336 131L341 85L347 39Q333 35 196.50 5Q60-25 46-29L26 61Q69 69 177 94L193 169L123 149Q100 345 63 493L135 512Q183 325 195 180Q212 264 256 514L332 498Q306 348 257 112Q328 128 336 131M918 384L653 384L628 309L876 309L876-3Q876-56 855-73Q834-90 766-100L727-106L700-26L708-25L648-25L648 227L586 227L586-41L506-41L506 227L441 227L441-98L361-98L361 309L534 309Q547 347 558 384L350 384L350 466L918 466L918 384M794 20L794 227L725 227L725-23L748-20Q777-16 785.50-8.50Q794-1 794 20Z"  horiz-adv-x="984" vert-adv-y="1000"  />

    
    <glyph glyph-name="uni7D20" unicode="&#x7D20;" d="M541 492L926 492L926 419L693 419L738 361Q544 244 422 199L691 211L643 248L695 303Q735 277 793.50 228.50Q852 180 889 145L841 83Q833 91 814 107Q795 123 785 132Q678 132 546 128L546 13Q546-48 523.50-66.50Q501-85 426-94L365-100L335-10L391-4Q431 0 442.50 7.50Q454 15 454 41L454 126Q240 120 214 118L122 112L109 192Q174 192 215 201Q299 222 416 277Q282 275 244 272Q234 270 206 269Q178 268 168 266L155 337Q210 342 232 352Q279 371 356 419L60 419L60 492L444 492L444 543L146 543L146 616L444 616L444 666L103 666L103 741L444 741L444 806L541 802L541 741L883 741L883 666L541 666L541 616L837 616L837 543L541 543L541 492M553 348Q611 381 669 419L445 419L466 396Q428 371 370 342Q396 344 461.50 345.50Q527 347 553 348M607 39L648 120Q754 74 924-13L888-94Q704 3 607 39M308 117L352 39Q218-40 89-94L50-12Q197 40 308 117Z"  horiz-adv-x="984" vert-adv-y="1000"  />

    
    <glyph glyph-name="uni7EDD" unicode="&#x7EDD;" d="M837 127L925 93Q923 69 918 46Q902-27 873-52.50Q844-78 765-82Q650-88 533-82Q459-78 429.50-47.50Q400-17 400 61L400 457L345 500Q462 636 538 822L625 798Q613 771 587 717L825 717L825 638L741 524L862 524L862 191L486 191L486 77Q486 38 502 24Q518 10 559 8Q660 2 760 8Q804 10 814.50 20.50Q825 31 831 73Q836 108 837 127M111 431Q87 429 68 424L44 519Q51 522 55.50 524Q60 526 63.50 529Q67 532 68.50 533Q70 534 74 539Q78 544 79 546Q99 571 143.50 660.50Q188 750 214 813L297 778Q208 586 163 526L257 532Q268 553 288.50 593Q309 633 319 651L390 610Q276 382 207 284L351 307L352 214Q188 190 145 179Q108 171 91 165L65 265Q86 271 98 278Q110 285 121 301Q140 327 206 439Q112 431 111 431M721 636L544 636Q518 587 475 524L637 524L721 636M486 277L589 277L589 438L486 438L486 277M779 277L779 438L672 438L672 277L779 277M364 122L365 69L367 24Q308 14 45-42L30 52Q64 58 196 85.50Q328 113 364 122Z"  horiz-adv-x="984" vert-adv-y="1000"  />

    
    <glyph glyph-name="uni7EF4" unicode="&#x7EF4;" d="M118 436Q113 435 98 432.50Q83 430 74 428L46 524Q76 533 87 555Q107 583 146 662.50Q185 742 213 813L301 779Q240 630 173 532L253 537Q264 557 313 659L392 620Q356 547 297 441.50Q238 336 206 287Q317 304 347 313L348 219Q261 201 156 183L98 171L73 274Q102 285 119 308Q153 355 203 444Q124 437 118 436M939 54L939-37L515-37L515-97L427-97L427 419Q406 381 380 343L321 431Q436 590 486 809L577 794Q559 722 537 659L670 659Q645 758 638 778L724 792L760 659L916 659L916 568L748 568L748 459L899 459L899 372L748 372L748 263L899 263L899 174L748 174L748 54L939 54M661 459L661 568L515 568L515 459L661 459M661 263L661 372L515 372L515 263L661 263M515 174L515 54L661 54L661 174L515 174M381 129L385 80L388 34Q345 27 215.50 2.50Q86-22 52-30L37 62Q330 117 381 129Z"  horiz-adv-x="984" vert-adv-y="1000"  />

    
    <glyph glyph-name="uni7F8E" unicode="&#x7F8E;" d="M906 389L906 303L67 303L67 389L438 389L438 459L136 459L136 538L438 538L438 611L104 611L104 690L309 690Q251 757 238 772L302 831Q360 773 401 724L364 690L550 690Q621 768 659 834L738 779Q712 737 672 690L869 690L869 611L538 611L538 538L838 538L838 459L538 459L538 389L906 389M879 136L558 136Q657 28 931-16L889-120Q607-67 489 76Q392-57 85-123L44-20Q332 30 406 136L94 136L94 221L433 221L436 289L538 289Q538 282 537.50 257.50Q537 233 537 221L879 221L879 136Z"  horiz-adv-x="984" vert-adv-y="1000"  />

    
    <glyph glyph-name="uni7FA4" unicode="&#x7FA4;" d="M934 207L934 115L748 115L748-102L655-102L655 115L492 115L492 207L655 207L655 330L528 330L528 422L655 422L655 545L518 545L518 636L606 636Q573 714 532 775L611 820Q646 763 690 672L613 636L700 636Q760 743 788 821L876 785Q848 717 802 636L905 636L905 545L748 545L748 422L888 422L888 330L748 330L748 207L934 207M461 332L239 332Q230 293 215 257L469 257L469-60L147-60L147 125L84 31L25 110Q111 225 143 332L79 332L79 419L163 419Q169 458 172 503L61 503L61 589L177 589Q177 604 177.50 634Q178 664 179 676L84 676L84 760L461 760L461 589L505 589L505 503L461 503L461 332M374 676L272 676Q272 661 270 589L374 589L374 676M374 503L265 503Q262 458 256 419L374 419L374 503M236 172L236 25L383 25L383 172L236 172Z"  horiz-adv-x="984" vert-adv-y="1000"  />

    
    <glyph glyph-name="uni800C" unicode="&#x800C;" d="M907 666L543 666L505 530L859 530L859 33Q859-34 837.50-58Q816-82 744-88L701-92L669 7L705 10Q738 13 748.50 23Q759 33 759 61L759 436L640 436L640-35L543-35L543 436L431 436L431-35L334-35L334 436L210 436L210-80L115-80L115 530L395 530Q412 582 433 666L67 666L67 759L907 759L907 666Z"  horiz-adv-x="984" vert-adv-y="1000"  />

    
    <glyph glyph-name="uni8109" unicode="&#x8109;" d="M777 694L741 611Q602 694 501 743L544 823Q696 745 777 694M560 439L560 342Q532 152 406-41L358-10Q355-54 334-72.50Q313-91 263-95L222-99L195-6L234-2Q258 0 265.50 8Q273 16 273 39L273 196L185 196Q182 104 166 40.50Q150-23 117-103L30-78Q71 25 86 109.50Q101 194 101 382L101 749L358 749L358 58Q430 167 472 341L371 341L371 439L560 439M273 656L187 656L187 514L273 514L273 656M962 48L883-26Q761 99 684 282L684 21Q684-51 659-74Q634-97 562-103L508-108L478-10L525-6Q567-2 579 7Q591 16 591 49L591 531L403 531L403 624L684 624L684 518Q698 473 714 428Q795 509 847 582L919 505Q845 423 756 333Q838 167 962 48M187 291L273 291L273 425L187 425L187 291Z"  horiz-adv-x="984" vert-adv-y="1000"  />

    
    <glyph glyph-name="uni81F3" unicode="&#x81F3;" d="M170 486Q248 546 348 654L96 654L96 748L890 748L890 654L476 654Q380 547 294 472L679 485Q647 520 581 584L649 646Q776 535 883 415L818 331L762 395Q682 395 469 386.50Q256 378 142 370L119 462Q141 467 170 486M544 22L931 22L931-69L54-69L54 22L444 22L444 157L137 157L137 249L444 249L444 369L544 365L544 249L849 249L849 157L544 157L544 22Z"  horiz-adv-x="984" vert-adv-y="1000"  />

    
    <glyph glyph-name="uni822A" unicode="&#x822A;" d="M860 162L943 131Q942 94 932 12Q922-50 905.50-70Q889-90 842-90L803-90Q758-90 736.50-66Q715-42 715 16L715 381L605 381L605 296Q605 136 583 55.50Q561-25 492-115L421-54Q409-72 386-80Q363-88 320-92L277-96L248-1L294 2Q328 4 336 12.50Q344 21 344 48L344 301L214 301Q211 143 192.50 67Q174-9 129-99L40-62Q87 31 105 97Q123 163 126 301L59 301L59 393L127 393L127 713L211 713Q236 781 242 812L331 794Q321 765 307 713L436 713L436 18Q436-11 432-26Q488 46 502.50 105Q517 164 517 318L517 473L808 473L808 44Q808 10 823 10L835 10Q844 10 846.50 17.50Q849 25 852 51Q853 54 853 56Q859 107 860 162M918 667L918 576L454 576L454 667L635 667Q622 713 599 783L690 801Q716 728 733 667L918 667M215 393L344 393L344 625L215 625L215 564L275 596Q316 522 339 458L277 418Q235 525 215 561L215 393M341 139L278 96Q242 192 214 244L274 276Q315 207 341 139Z"  horiz-adv-x="984" vert-adv-y="1000"  />

    
    <glyph glyph-name="uni8272" unicode="&#x8272;" d="M830 156L924 122Q916 55 913 39Q899-33 870-56.50Q841-80 759-82Q530-89 302-82Q221-80 186.50-45.50Q152-11 152 74L152 457L104 415L39 499Q242 665 329 827L421 783Q405 753 392 734L746 734L746 651Q710 618 637 530L836 530L836 203L250 203L250 97Q250 46 266 30Q282 14 335 12Q537 5 738 12Q787 14 800.50 25.50Q814 37 822 77Q828 109 830 156M618 643L328 643Q279 582 229 530L511 530Q520 539 550 572.50Q580 606 596.50 623Q613 640 618 643M250 293L444 293L444 442L250 442L250 293M737 293L737 442L541 442L541 293L737 293Z"  horiz-adv-x="984" vert-adv-y="1000"  />

    
    <glyph glyph-name="uni82C7" unicode="&#x82C7;" d="M696 731L918 731L918 648L696 648L696 581L599 581L599 648L386 648L386 581L290 581L290 648L68 648L68 731L290 731L290 808L386 804L386 731L599 731L599 808L696 804L696 731M510 603L510 540L871 540L871 456L510 456L510 388L829 388L829 306L510 306L510 241L870 241Q870 172 860 79Q854 15 818.50-9.50Q783-34 700-40L622-46L594 45L684 51Q722 53 735 61.50Q748 70 753 94Q756 105 763 152L510 152L510-99L413-99L413 152L98 152L98 241L413 241L413 306L163 306L163 388L413 388L413 456L124 456L124 540L413 540L413 607L510 603Z"  horiz-adv-x="984" vert-adv-y="1000"  />

    
    <glyph glyph-name="uni82CF" unicode="&#x82CF;" d="M286 552L286 622L59 622L59 715L286 715L286 808L387 804L387 715L604 715L604 808L705 804L705 715L929 715L929 622L705 622L705 549L604 549L604 622L387 622L387 552L286 552M751 276L787 323Q895 238 945 180L889 88Q824 159 748 223Q746 196 743.50 155.50Q741 115 739 89Q737 63 736 47Q730-27 696-54.50Q662-82 577-88L498-93L468 4L547 10Q603 14 620 27Q637 40 641 88Q658 296 658 376L464 376Q457 247 425.50 161Q394 75 331.50 10.50Q269-54 155-125L87-42Q240 46 297.50 133Q355 220 365 376L110 376L110 468L369 468Q371 530 371 548L471 544L469 468L762 468Q761 439 751 276M212 354L293 295Q222 171 146 87L66 150Q132 216 212 354Z"  horiz-adv-x="984" vert-adv-y="1000"  />

    
    <glyph glyph-name="uni832B" unicode="&#x832B;" d="M700 714L916 714L916 620L700 620L700 550L604 550L604 620L398 620L398 542L301 542L301 620L70 620L70 714L301 714L301 809L398 805L398 714L604 714L604 809L700 805L700 714M116 494L157 575Q192 557 244 523Q296 489 326 465L288 379Q186 455 116 494M545 527L637 544Q642 528 654 488Q666 448 670 435L911 435L911 336L476 336L476 28L872 28L872-68L374-68L374 336L334 336L334 435L574 435Q562 477 545 527M278 297L239 209Q191 248 61 324L106 407Q213 346 278 297M169-104L88-43Q160 60 239 201L318 148Q234-8 169-104Z"  horiz-adv-x="984" vert-adv-y="1000"  />

    
    <glyph glyph-name="uni85CF" unicode="&#x85CF;" d="M877 114L951 75Q940 15 921-38Q896-104 842-104Q817-104 789.50-86.50Q762-69 745-37Q724 7 707 75Q687 50 657 23L607 88L621 101L574 101L574 19L662 19L662-56L356-56L356 448L642 448L642 378L574 378L574 303L640 303L640 121Q666 147 687 174Q674 261 666 375L660 489L329 489L329 310Q329 150 308.50 61Q288-28 231-122L155-70Q208 2 225 59.50Q242 117 244 219L196 219Q192 144 169.50 83Q147 22 100-45L33 1Q79 68 96.50 112Q114 156 118 219L60 219L60 300L244 300L244 365L111 365L111 602L189 598L189 446L244 446L244 569L657 569Q657 596 656 609L578 609L578 661L408 661L408 607L317 607L317 661L73 661L73 740L317 740L317 811L408 807L408 740L578 740L578 811L669 807L669 740L919 740L919 661L830 661Q868 627 892 603L868 569L914 569L914 489L743 489L746 420Q750 344 758 279Q797 351 827 438L898 407Q842 254 775 159Q787 93 801 60Q813 30 821.50 19Q830 8 841 8Q855 8 864 49Q870 75 877 114M741 625L741 569L816 569Q778 607 761 620L800 661L669 661L669 628L741 625M505 378L436 378L436 303L505 303L505 378M567 171L567 234L436 234L436 171L567 171M505 19L505 101L436 101L436 19L505 19Z"  horiz-adv-x="984" vert-adv-y="1000"  />

    
    <glyph glyph-name="uni8607" unicode="&#x8607;" d="M305 592L305 644L67 644L67 726L305 726L305 809L397 805L397 726L595 726L595 811L687 806L687 726L921 726L921 644L687 644L687 586L595 587L595 644L397 644L397 592L305 592M121 340L111 330L60 399Q168 501 233 624L307 591Q304 586 298.50 574.50Q293 563 289 557L443 557L443 489L391 434L464 434L464 111L121 111L121 340M908 304L749 304Q819 169 957 57L900-16Q787 81 728 184L728-98L643-98L643 176Q582 69 510-3L478 40L508-52L438-74Q421-5 386 82L456 106Q459 97 464 80Q555 165 621 304L486 304L486 388L643 388L643 478Q539 467 507 465L499 550Q719 566 870 597L881 510Q830 501 728 488L728 388L908 388L908 304M351 489L247 489Q231 466 206 434L302 434L351 489M257 306L257 368L196 368L196 306L257 306M386 306L386 368L327 368L327 306L386 306M196 240L196 178L257 178L257 240L196 240M327 178L386 178L386 240L327 240L327 178M133-95L56-71Q107 71 116 107L188 84Q168 9 133-95M291 82L359 95Q384-7 390-57L320-68Q318-53 291 82M197 87L268 90Q279 30 286-71L209-75Q209-23 197 87Z"  horiz-adv-x="984" vert-adv-y="1000"  />

    
    <glyph glyph-name="uni865A" unicode="&#x865A;" d="M240 558L240 344Q240 185 215 94Q190 3 126-104L37-61Q104 41 125.50 123Q147 205 147 360L147 634L426 634L426 807L526 803L526 754L842 754L842 679L526 679L526 634L903 634L903 561L870 470L782 484L807 558L240 558M517 289Q465 291 444.50 316Q424 341 424 394L424 407L259 396L257 473L424 483L424 544L518 540L518 488L737 501L739 428L518 413L518 410Q518 383 524 374.50Q530 366 553 364Q638 360 724 364Q749 366 756.50 371.50Q764 377 768 395Q775 431 776 450L861 422Q860 400 853 366Q843 319 824.50 305Q806 291 745 289Q631 284 517 289M690 12L915 12L915-67L201-67L201 12L426 12L426 272L518 268L518 12L600 12L600 272L690 268L690 12M805 266L874 219Q824 128 771 60L697 108Q759 178 805 266M411 119L346 61Q321 113 248 209L314 257Q342 223 411 119Z"  horiz-adv-x="984" vert-adv-y="1000"  />

    
    <glyph glyph-name="uni8A00" unicode="&#x8A00;" d="M553 698L932 698L932 608L52 608L52 698L449 698Q430 768 424 783L522 800Q528 784 539 745.50Q550 707 553 698M805 543L805 456L179 456L179 543L805 543M179 305L179 392L805 392L805 305L179 305M154-96L154 243L830 243L830-95L731-95L731-46L251-46L251-96L154-96M731 153L251 153L251 43L731 43L731 153Z"  horiz-adv-x="984" vert-adv-y="1000"  />

    
    <glyph glyph-name="uni8C31" unicode="&#x8C31;" d="M729 441L937 441L937 359L292 359L292 441L490 441L490 616L397 616Q441 569 480 505L424 444Q408 472 335 573L385 616L322 616L322 698L476 698Q436 757 417 780L487 824Q536 761 554 728L519 698L642 698Q682 742 736 824L805 777Q783 737 751 698L904 698L904 616L836 616L887 573Q838 493 796 447L733 494Q784 548 822 616L729 616L729 441M289 624L221 554Q142 680 100 728L167 783Q234 710 289 624M577 616L577 441L640 441L640 616L577 616M245 108L314 174L343 77Q259 0 192-73L133 3Q149 16 152 28.50Q155 41 155 67L155 394L61 394L61 498L245 498L245 108M363-98L363 298L853 298L853-97L767-97L767-66L449-66L449-98L363-98M767 216L449 216L449 156L767 156L767 216M449 17L767 17L767 76L449 76L449 17Z"  horiz-adv-x="984" vert-adv-y="1000"  />

    
    <glyph glyph-name="uni8D24" unicode="&#x8D24;" d="M389 794L389 401L291 401L291 798L389 794M720 517Q801 479 928 458L899 369Q724 407 632 464Q542 418 431 385L391 474Q486 499 553 526Q504 571 453 645L503 679L422 679L422 764L873 764L873 681Q819 587 720 517M205 757L205 414L111 414L111 761L205 757M763 679L533 679Q584 611 638 568Q711 613 763 679M814 74L708 74L708 273L278 273L278 72L174 72L174 367L814 367L814 74M449 253L549 246Q543 194 532 156Q506 56 410-7Q314-70 114-115L82-16Q255 17 336 59.50Q417 102 435 173Q441 194 449 253M532 26L571 107Q710 60 899-23L869-123Q694-28 532 26Z"  horiz-adv-x="984" vert-adv-y="1000"  />

    
    <glyph glyph-name="uni8D2D" unicode="&#x8D2D;" d="M599 679L894 679L878 48Q876-21 842-51.50Q808-82 734-88L670-94L640 2L705 8Q757 12 772 26Q787 40 789 88Q789 106 790 125L731 91L718 138Q549 123 458 107L429 199Q454 218 464 240Q510 334 567 530L651 505Q593 303 544 210L689 223Q649 333 623 386L702 418Q739 337 791 187Q792 239 794.50 339Q797 439 798.50 506Q800 573 800 586L560 586Q533 526 493 456L424 498L424 169L343 169L343 655L187 655L187 165L106 165L106 746L424 746L424 520Q503 658 549 815L636 793Q613 715 599 679M306 587L306 281Q306 149 262 64.50Q218-20 105-117L41-42Q143 32 183.50 106Q224 180 224 304L224 591L306 587M271 72L331 133Q406 64 456-1L398-78Q337 6 271 72Z"  horiz-adv-x="984" vert-adv-y="1000"  />

    
    <glyph glyph-name="uni8D60" unicode="&#x8D60;" d="M776 690L898 690L898 352L422 352L422 690L542 690Q512 745 491 776L561 820Q610 749 623 721L585 690L678 690Q725 754 750 816L824 776Q807 741 776 690M161 660L161 163L87 163L87 750L391 750L391 166L316 166L316 660L161 660M273 613L273 303Q273 161 238 81.50Q203 2 97-109L32-39Q134 57 168 128Q202 199 202 326L202 617L273 613M499 614L499 428L622 428L622 614L499 614M820 428L820 614L700 614L700 483Q741 544 766 602L813 567Q792 516 749 447L700 479L700 428L820 428M505 570L551 601Q594 542 615 484L570 440Q534 523 505 570M457-100L457 299L857 299L857-100L778-100L778-64L539-64L539-100L457-100M778 219L539 219L539 157L778 157L778 219M243 80L298 141Q370 69 423-3L368-79Q301 17 243 80M539 16L778 16L778 77L539 77L539 16Z"  horiz-adv-x="984" vert-adv-y="1000"  />

    
    <glyph glyph-name="uni8EAB" unicode="&#x8EAB;" d="M867 434L930 370Q872 299 789 235L789 37Q789-30 757.50-60Q726-90 645-96L546-103L521-3L610 3Q659 7 674 20.50Q689 34 689 71L689 166Q447 16 79-82L46 12Q345 76 556 190L75 190L75 274L189 274L189 717L369 717Q402 777 418 817L522 791Q512 768 485 717L789 717L789 354Q829 390 867 434M689 633L289 633L289 569L689 569L689 633M689 421L689 487L289 487L289 421L689 421M289 340L289 274L689 274L689 340L289 340Z"  horiz-adv-x="984" vert-adv-y="1000"  />

    
    <glyph glyph-name="uni8FB9" unicode="&#x8FB9;" d="M385 71L310 152Q408 240 444 318Q480 396 490 551L344 551L344 652L495 652Q500 732 500 805L597 801Q597 746 591 652L865 652Q863 631 853.50 440.50Q844 250 842 229Q838 148 804 121Q770 94 676 85L611 79L577 185L657 191Q714 195 726 205.50Q738 216 740 262Q740 342 759 551L585 551Q573 366 532 269Q491 172 385 71M296 608L225 544Q206 580 165.50 636.50Q125 693 97 721L165 776Q215 726 296 608M518 17Q657 14 940 24L921-79Q701-85 503-81Q286-76 209 38Q192 17 104-77L44-6Q120 60 164 120L164 379L75 379L75 477L259 477L259 121Q294 64 352 41.50Q410 19 518 17Z"  horiz-adv-x="984" vert-adv-y="1000"  />

    
    <glyph glyph-name="uni9006" unicode="&#x9006;" d="M508 15Q719 11 930 21L907-73Q682-84 486-80Q376-78 313.50-53.50Q251-29 205 29Q138-53 94-94L30-15Q95 40 162 119L162 379L50 379L50 478L254 478L254 119Q283 71 334.50 46Q386 21 469 16L419 71Q478 113 504 147Q530 181 539 236L345 236L345 507L438 503L438 327L547 327Q548 346 548 389L548 570L307 570L307 659L459 659Q413 734 380 776L455 829Q510 760 541 704L487 659L633 659Q695 749 727 819L814 775Q787 726 741 659L894 659L894 570L644 570L644 375Q644 342 643 327L754 327L754 508L847 504L847 236L637 236Q627 164 598 114Q569 64 508 15M285 608L211 541Q190 579 148.50 637Q107 695 77 727L149 785Q222 706 285 608Z"  horiz-adv-x="984" vert-adv-y="1000"  />

    
    <glyph glyph-name="uni9601" unicode="&#x9601;" d="M309 677L242 606Q216 638 172.50 683Q129 728 102 751L164 818Q231 765 309 677M338 764L878 764L878 36Q878-35 853.50-63.50Q829-92 755-98L690-104L659-15L716-11Q756-8 771 7Q786 22 786 60L786 341L762 256Q608 283 495 340Q391 290 215 249L185 315L185-80L93-80L93 621L185 617L185 335Q324 365 403 397Q364 426 327 466Q290 430 249 400L201 472Q250 509 301.50 566.50Q353 624 382 673L460 637L431 590L718 590L718 516Q662 445 589 395Q666 364 786 345L786 676L338 676L338 764M598 516L400 516Q436 477 494 441Q550 471 598 516M689 263L689-3L281-3L281 263L689 263M601 76L601 183L369 183L369 76L601 76Z"  horiz-adv-x="984" vert-adv-y="1000"  />

    
    <glyph glyph-name="uni966A" unicode="&#x966A;" d="M789 437L934 437L934 344L367 344L367 437L483 437L463 606L398 606L398 697L597 697Q572 785 570 791L663 807Q666 796 677 756.50Q688 717 694 697L890 697L890 606L822 606Q808 528 789 437M375 750L375 655Q348 546 306 436Q378 320 378 201Q378 116 353 89.50Q328 63 251 48L226 43L196 140L226 145Q268 151 281.50 166.50Q295 182 295 226Q295 306 218 418Q260 543 287 656L187 656L187-104L97-104L97 750L375 750M727 606L559 606Q568 553 581 437L694 437Q716 531 727 606M420-103L420 266L856 266L856-103L761-103L761-63L513-63L513-103L420-103M761 176L513 176L513 26L761 26L761 176Z"  horiz-adv-x="984" vert-adv-y="1000"  />

    
    <glyph glyph-name="uni96F6" unicode="&#x96F6;" d="M188 586L188 459L94 459L94 651L444 651L444 705L138 705L138 777L845 777L845 705L540 705L540 651L889 651L889 458L794 458L794 586L540 586L540 470L444 470L444 586L188 586M404 497L220 497L220 552L404 552L404 497M762 497L578 497L578 552L762 552L762 497M942 261L910 172Q844 194 812 206L812 132Q787 118 712.50 71.50Q638 25 596 2L710-32L677-115Q359-9 226 28L250 103Q288 93 492 33Q514 45 578 83Q642 121 669 134L184 134L184 207L487 207Q430 271 413 286L478 340Q494 324 528.50 285Q563 246 569 240L532 207L808 207Q582 288 492 378Q399 285 73 172L38 259Q259 319 399 409L220 409L220 465L404 465L404 412Q409 416 451 446L536 446Q554 430 578 413L578 465L762 465L762 409L584 409Q717 320 942 261Z"  horiz-adv-x="984" vert-adv-y="1000"  />

    
    <glyph glyph-name="uni9752" unicode="&#x9752;" d="M542 477L932 477L932 405L54 405L54 477L443 477L443 528L145 528L145 597L443 597L443 647L105 647L105 716L443 716L443 802L542 798L542 716L881 716L881 647L542 647L542 597L841 597L841 528L542 528L542 477M171-91L171 357L817 357L817 18Q817-46 793-67.50Q769-89 697-95L624-101L596-17L670-13Q703-12 712.50-3.50Q722 5 722 32L722 41L266 41L266-91L171-91M722 283L266 283L266 232L722 232L722 283M266 111L722 111L722 162L266 162L266 111Z"  horiz-adv-x="984" vert-adv-y="1000"  />

    
    <glyph glyph-name="uni9759" unicode="&#x9759;" d="M933 384L933 301L865 301L865 126L693 126L693 23Q693-39 678-60Q663-81 601-87L536-93L509-6L554-3Q589-1 598.50 8Q608 17 608 45L608 126L454 126L454 207L608 207L608 301L439 301L439 384L608 384L608 479L480 479L480 533L433 575Q524 692 576 811L662 795Q654 774 636 736L818 736L818 661L750 561L865 561L865 384L933 384M454 481L454 409L36 409L36 481L208 481L208 532L85 532L85 603L208 603L208 653L64 653L64 727L208 727L208 805L297 801L297 727L443 727L443 653L297 653L297 603L420 603L420 532L297 532L297 481L454 481M716 653L590 653Q565 612 527 561L652 561L716 653M693 479L693 384L781 384L781 479L693 479M94-93L94 362L410 362L410 1Q410-47 393-65.50Q376-84 330-88L283-92L258-12L297-8Q318-6 324-0.50Q330 5 330 23L330 58L176 58L176-93L94-93M781 207L781 301L693 301L693 207L781 207M330 291L176 291L176 244L330 244L330 291M176 128L330 128L330 175L176 175L176 128Z"  horiz-adv-x="984" vert-adv-y="1000"  />

    
    <glyph glyph-name="uni9760" unicode="&#x9760;" d="M562 611L937 611L937 543L55 543L55 611L181 611L126 649Q187 706 241 807L333 784Q323 765 299 730L461 730L461 803L562 799L562 730L857 730L857 663L562 663L562 611M461 663L251 663Q220 623 209 611L461 611L461 663M823 502L823 328L172 328L172 502L823 502M723 394L723 438L272 438L272 394L723 394M355 274L355 317L453 315L453-101L355-101L355-26L70-26L70 39L355 39L355 90L114 90L114 157L355 157L355 206L96 206L96 274L355 274M637 90L637 39L923 39L923-26L637-26L637-101L539-101L539 317L637 315L637 274L898 274L898 206L637 206L637 157L881 157L881 90L637 90Z"  horiz-adv-x="984" vert-adv-y="1000"  />

    
    <glyph glyph-name="uni9986" unicode="&#x9986;" d="M689 705L911 705L911 539L815 539L815 617L468 617L468 539L374 539L374 705L589 705Q584 723 563 785L657 802Q664 786 689 705M240 436L240 83Q254 95 288 123Q322 151 331 158L359 59Q350 54 298.50 15Q247-24 230-36Q223-42 203-57.50Q183-73 174-81L123-5Q142 11 147 24Q152 37 152 60L152 464L238 460L280 570L187 570Q159 485 107 366L28 420Q79 538 107 617.50Q135 697 157 797L243 784Q240 772 230 729Q220 686 214 665L352 665L352 569L302 414L240 436M508 277L508 212L871 212L871-100L779-100L779-60L508-60L508-105L415-105L415 537L850 537L850 277L508 277M757 452L508 452L508 363L757 363L757 452M779 126L508 126L508 23L779 23L779 126Z"  horiz-adv-x="984" vert-adv-y="1000"  />

    
    <glyph glyph-name="uni9999" unicode="&#x9999;" d="M940 342L906 253Q839 279 795 302L795-96L695-96L695-66L277-66L277-97L177-97L177 299Q105 265 66 250L35 340Q226 405 358 504L82 504L82 590L437 590L437 667Q420 666 147 655L139 746Q492 752 810 785L824 695Q737 686 537 673L537 590L894 590L894 504L619 504Q745 408 940 342M232 327L746 327Q621 394 537 471L537 351L437 351L437 466Q352 391 232 327M695 173L695 245L277 245L277 173L695 173M277 18L695 18L695 90L277 90L277 18Z"  horiz-adv-x="984" vert-adv-y="1000"  />

    
    <glyph glyph-name="uni9A8C" unicode="&#x9A8C;" d="M340 481L334 384L376 384Q376 368 369 217.50Q362 67 362 37Q358-30 335.50-51.50Q313-73 239-81L179-87L151-4L206 0Q253 4 266 15Q279 26 281 67Q281 76 285.50 177Q290 278 290 299L89 299L113 639L194 635L177 384L251 384L269 674L71 674L71 762L356 762L340 486Q520 629 602 813L678 813Q757 635 957 477L904 400Q859 436 818 474L818 403L461 403L461 466Q441 447 393 407L340 481M642 699Q586 592 494 498L793 498Q695 596 642 699M705 132L627 101Q604 249 561 359L639 384Q677 281 705 132M786 375L867 347Q833 214 767 30L906 30L906-64L379-64L379 30L680 30Q743 194 786 375M558 98L480 68Q470 126 447.50 214Q425 302 407 349L481 375Q501 323 524.50 238.50Q548 154 558 98M258 179L261 136Q139 108 42 93L36 185Q136 197 256 222L258 179Z"  horiz-adv-x="984" vert-adv-y="1000"  />

    
    <glyph glyph-name="uniFF0C" unicode="&#xFF0C;" d="M218-136L117-136Q154-74 181 8.50Q208 91 208 149L328 149Q328 88 293.50 3Q259-82 218-136Z"  horiz-adv-x="984" vert-adv-y="1000"  />

    
    <glyph glyph-name="uniFF1B" unicode="&#xFF1B;" d="M260 386Q210 386 195 400.50Q180 415 180 466Q180 518 194.50 532Q209 546 260 546Q310 546 324.50 532Q339 518 339 466Q339 415 324 400.50Q309 386 260 386M219-136L117-136Q155-72 182 9.50Q209 91 209 149L329 149Q329 88 294.50 3Q260-82 219-136Z"  horiz-adv-x="984" vert-adv-y="1000"  />

    

  </font>
</defs>
</svg>
